<?xml version="1.0" encoding="UTF-8" standalone="no"?>
<!DOCTYPE svg PUBLIC "-//W3C//DTD SVG 1.1//EN" "http://www.w3.org/Graphics/SVG/1.1/DTD/svg11.dtd">
<svg xmlns="http://www.w3.org/2000/svg" version="1.1" viewBox="0.00 0.00 693.00 693.00">
<g stroke-width="2.00" fill="none" stroke-linecap="butt">
<path stroke="#f1f5fa" vector-effect="non-scaling-stroke" d="
  M 189.80 0.00
  Q 195.87 -0.29 200.87 1.55"
/>
<path stroke="#999ca8" vector-effect="non-scaling-stroke" d="
  M 200.87 1.55
  C 178.46 14.94 160.00 31.99 142.37 51.07
  A 0.68 0.67 42.3 0 1 141.42 51.11
  C 132.05 42.49 123.54 33.49 110.59 29.63
  C 96.83 25.52 90.16 26.77 80.96 37.68
  Q 80.64 38.07 80.19 37.85
  C 63.86 30.05 40.71 24.23 22.57 31.07
  Q 9.86 35.86 0.00 45.54"
/>
<path stroke="#a8a7ad" vector-effect="non-scaling-stroke" d="
  M 205.32 0.00
  L 200.87 1.55"
/>
<path stroke="#9e9ba5" vector-effect="non-scaling-stroke" d="
  M 238.31 0.00
  L 243.49 0.68
  Q 244.54 0.82 243.50 1.02
  Q 240.48 1.59 238.26 2.51
  C 212.87 13.01 190.81 26.19 171.39 45.90"
/>
<path stroke="#a8a7ad" vector-effect="non-scaling-stroke" d="
  M 171.39 45.90
  Q 123.14 93.90 108.54 107.29
  C 94.40 120.24 78.99 130.63 62.85 140.86
  Q 62.34 141.19 62.94 141.24
  Q 74.18 142.15 85.23 139.90
  Q 93.95 138.12 101.96 137.16"
/>
<path stroke="#5f5d6a" vector-effect="non-scaling-stroke" d="
  M 101.96 137.16
  C 108.62 145.29 109.43 148.26 101.71 155.81"
/>
<path stroke="#a8a7ad" vector-effect="non-scaling-stroke" d="
  M 101.71 155.81
  Q 101.20 156.06 100.97 156.56"
/>
<path stroke="#9e9ba5" vector-effect="non-scaling-stroke" d="
  M 100.97 156.56
  Q 94.78 160.35 91.25 165.26
  C 77.37 184.59 66.71 209.67 64.28 233.90
  Q 64.07 236.00 63.61 237.82"
/>
<path stroke="#888591" vector-effect="non-scaling-stroke" d="
  M 63.61 237.82
  Q 61.78 249.79 61.73 260.75
  Q 61.70 269.25 63.04 278.77"
/>
<path stroke="#9e9ba5" vector-effect="non-scaling-stroke" d="
  M 63.04 278.77
  Q 63.96 306.67 66.17 334.54
  C 68.43 363.13 64.72 390.54 55.47 417.97
  Q 55.21 418.75 55.98 418.47
  Q 62.89 416.00 68.61 410.89
  C 73.06 406.93 74.55 395.19 84.08 401.06
  C 87.24 403.00 88.24 406.64 88.59 410.15"
/>
<path stroke="#888591" vector-effect="non-scaling-stroke" d="
  M 88.59 410.15
  Q 87.78 414.39 88.90 418.78"
/>
<path stroke="#9e9ba5" vector-effect="non-scaling-stroke" d="
  M 88.90 418.78
  C 88.53 467.86 125.76 499.92 159.05 529.70
  Q 161.19 531.62 165.11 534.30
  Q 165.57 534.61 165.66 534.06
  L 169.31 511.86"
/>
<path stroke="#888591" vector-effect="non-scaling-stroke" d="
  M 169.31 511.86
  L 172.88 496.46"
/>
<path stroke="#9e9ba5" vector-effect="non-scaling-stroke" d="
  M 172.88 496.46
  Q 177.86 500.36 184.29 501.67
  Q 184.95 501.81 184.68 501.19
  Q 180.14 490.78 179.30 479.44
  Q 177.41 453.86 175.17 428.31
  Q 174.94 425.72 175.18 424.57"
/>
<path stroke="#888591" vector-effect="non-scaling-stroke" d="
  M 175.18 424.57
  L 191.15 411.98"
/>
<path stroke="#9e9ba5" vector-effect="non-scaling-stroke" d="
  M 191.15 411.98
  Q 196.61 406.89 201.02 400.26
  Q 225.44 363.64 242.52 336.10
  C 251.80 321.15 257.96 303.78 264.65 287.46"
/>
<path stroke="#888591" vector-effect="non-scaling-stroke" d="
  M 264.65 287.46
  Q 272.54 282.94 281.01 285.93"
/>
<path stroke="#9e9ba5" vector-effect="non-scaling-stroke" d="
  M 281.01 285.93
  C 281.44 286.31 281.91 286.65 282.10 287.21
  Q 292.30 317.58 312.38 342.17
  C 320.90 352.59 327.08 360.01 336.88 366.60
  Q 337.45 366.98 337.31 366.31
  L 332.70 343.34"
/>
<path stroke="#5f5d6a" vector-effect="non-scaling-stroke" d="
  M 332.70 343.34
  Q 334.75 335.81 332.20 328.29
  C 330.46 323.19 336.62 320.20 340.59 319.89
  Q 341.11 319.85 341.49 320.20
  L 347.74 326.06"
/>
<path stroke="#9e9ba5" vector-effect="non-scaling-stroke" d="
  M 347.74 326.06
  C 364.01 355.69 388.97 374.63 423.07 378.77
  Q 423.48 378.82 423.32 378.44
  Q 413.02 354.29 407.05 328.74
  Q 406.92 328.18 407.19 326.47"
/>
<path stroke="#888591" vector-effect="non-scaling-stroke" d="
  M 407.19 326.47
  Q 415.31 319.50 421.03 312.31"
/>
<path stroke="#9e9ba5" vector-effect="non-scaling-stroke" d="
  M 421.03 312.31
  C 430.67 297.65 440.95 278.34 441.99 262.00
  Q 443.86 232.93 443.51 208.50
  Q 443.48 206.46 444.02 204.47"
/>
<path stroke="#888591" vector-effect="non-scaling-stroke" d="
  M 444.02 204.47
  Q 451.50 201.50 460.91 200.92"
/>
<path stroke="#9e9ba5" vector-effect="non-scaling-stroke" d="
  M 460.91 200.92
  Q 465.04 206.56 469.00 212.66
  C 478.31 226.97 488.53 239.60 500.92 251.41
  Q 501.29 251.77 501.50 251.29
  C 503.29 247.24 506.28 245.29 508.26 241.57
  C 511.48 235.53 520.20 231.60 526.86 230.25
  C 536.01 228.39 543.26 215.63 548.58 209.28
  A 1.60 1.52 70.1 0 0 548.94 208.46
  Q 549.37 204.78 552.76 203.26
  Q 553.18 203.07 553.36 202.64
  Q 557.58 192.85 558.32 182.19
  Q 558.36 181.68 558.70 181.31
  C 564.09 175.43 569.16 176.60 576.02 178.84
  A 0.76 0.76 0.0 0 0 576.84 178.60
  C 581.70 172.63 588.91 161.71 597.99 168.84
  C 602.96 172.75 608.76 177.18 604.77 183.31
  Q 599.99 190.64 596.14 194.87
  Q 595.83 195.21 596.06 195.62
  C 598.97 200.81 602.41 210.06 595.70 213.96
  Q 591.47 216.41 588.97 219.77
  A 1.17 1.15 -34.4 0 0 588.78 220.73
  C 595.95 250.13 597.49 283.39 598.63 312.31
  C 598.76 315.79 600.20 320.13 599.78 324.07
  Q 599.16 329.93 599.15 330.45
  C 598.78 357.42 597.02 381.09 589.37 406.70
  Q 586.07 417.72 582.58 428.63
  Q 582.41 429.16 582.94 429.00
  Q 603.17 422.66 619.39 409.32"
/>
<path stroke="#888591" vector-effect="non-scaling-stroke" d="
  M 619.39 409.32
  C 622.94 411.44 627.42 414.09 629.69 417.47
  Q 630.55 418.74 631.73 420.33"
/>
<path stroke="#9e9ba5" vector-effect="non-scaling-stroke" d="
  M 631.73 420.33
  Q 629.78 429.73 625.29 438.60
  C 620.51 448.06 617.01 457.60 611.35 466.64
  Q 611.15 466.95 611.52 466.93
  C 640.51 465.16 664.94 454.03 689.15 438.22
  C 690.28 437.48 691.00 436.62 691.83 435.57
  Q 692.32 434.94 692.43 435.73
  L 693.00 439.56"
/>
<path stroke="#999ca8" vector-effect="non-scaling-stroke" d="
  M 693.00 454.56
  Q 692.98 457.08 691.51 457.15
  Q 691.00 457.18 690.55 457.45
  C 671.72 468.75 651.69 478.45 630.13 481.91
  C 627.33 482.35 626.60 485.28 624.93 486.93
  C 610.80 500.95 599.07 510.67 581.05 519.28
  C 568.91 525.08 564.42 519.63 557.64 511.29
  A 0.40 0.40 0.0 0 0 556.99 511.34
  Q 548.98 525.20 535.24 534.24
  C 530.17 537.58 525.96 537.48 520.25 534.90
  Q 510.94 530.69 502.28 525.25
  Q 502.05 525.10 501.93 524.85
  L 501.80 524.58
  Q 501.25 523.43 501.25 524.71
  L 501.25 530.26
  A 2.79 2.78 -72.4 0 0 502.42 532.53
  C 534.82 555.57 562.56 588.47 583.34 622.17
  C 595.74 642.29 611.28 667.32 618.44 692.00
  Q 618.62 692.63 617.97 692.68
  L 613.93 693.00"
/>
<path stroke="#a8a7ad" vector-effect="non-scaling-stroke" d="
  M 600.85 693.00
  Q 597.30 693.04 595.99 688.76
  Q 594.54 684.04 594.49 683.90
  Q 566.24 616.16 513.54 565.13
  Q 513.11 564.72 513.01 565.30
  Q 511.07 576.00 506.11 585.69
  Q 505.84 586.21 506.35 586.51
  C 511.83 589.67 517.69 593.01 518.92 599.69
  C 521.06 611.29 504.73 634.32 499.01 643.91
  Q 498.75 644.35 499.00 644.80
  Q 500.46 647.41 500.80 649.00
  Q 502.51 657.03 505.84 664.51
  C 511.81 677.95 493.36 685.75 482.99 685.97
  Q 475.29 686.13 469.05 687.26
  Q 461.90 688.56 459.84 688.41
  C 449.15 687.59 447.61 679.51 446.68 669.83
  Q 444.99 652.40 442.94 635.00
  Q 442.83 634.04 442.81 635.01
  Q 442.53 651.90 441.13 662.68
  Q 439.61 674.46 439.28 680.51
  Q 438.99 685.75 434.24 692.10
  Q 433.95 692.49 433.46 692.56
  L 430.44 693.00"
/>
<path stroke="#a8a7ad" vector-effect="non-scaling-stroke" d="
  M 418.50 693.00
  Q 403.30 687.19 390.57 676.92
  C 385.11 672.51 384.72 666.85 387.18 660.27
  C 389.47 654.17 392.97 643.47 397.96 638.02
  Q 398.28 637.66 397.92 637.36
  L 380.83 622.89
  Q 380.48 622.60 380.28 623.00
  C 369.81 643.52 357.60 668.56 352.90 692.23
  Q 352.81 692.67 352.37 692.73
  L 350.43 693.00"
/>
<path stroke="#999ca8" vector-effect="non-scaling-stroke" d="
  M 335.94 693.00
  L 333.95 692.69
  Q 333.35 692.59 333.49 692.00
  C 343.52 648.49 367.37 603.85 392.17 567.70
  C 394.19 564.74 394.99 561.71 397.56 558.93
  Q 403.73 552.27 407.42 546.41
  Q 408.91 544.04 406.70 541.82
  A 0.95 0.94 63.0 0 0 405.92 541.56
  C 401.66 542.16 394.12 542.51 390.41 544.29
  Q 389.95 544.51 389.86 545.01
  Q 389.36 547.83 386.85 550.33
  Q 373.31 563.84 356.44 570.16
  C 350.76 572.29 347.67 571.46 342.47 569.06
  Q 330.14 563.35 320.53 553.84
  A 1.15 1.14 -41.1 0 0 319.04 553.74
  Q 301.48 566.81 280.67 574.69
  Q 275.23 576.75 270.42 573.60
  C 259.01 566.14 249.51 557.09 239.66 547.77
  Q 239.24 547.38 239.14 547.94
  C 238.24 552.92 237.58 559.81 235.34 563.57
  C 228.92 574.35 210.68 564.35 202.14 560.80
  Q 190.56 555.98 179.48 549.54
  A 0.49 0.48 -58.7 0 0 178.83 549.70
  C 172.20 560.05 160.89 553.68 154.24 548.02
  Q 133.69 530.53 111.41 507.68
  Q 111.04 507.31 111.06 507.83
  C 111.50 522.13 112.60 534.73 109.05 545.31
  C 105.18 556.84 100.25 576.89 89.48 583.47
  C 84.28 586.64 77.94 584.71 75.57 579.20
  C 73.97 575.46 74.27 569.37 74.15 564.82
  Q 73.96 557.86 70.26 549.21
  C 61.51 528.74 47.45 514.22 31.14 499.78
  Q 30.62 499.32 30.72 500.01
  C 32.90 514.50 36.98 527.90 40.76 542.11
  C 42.05 546.96 41.80 551.12 37.88 554.17
  C 34.12 557.10 28.56 556.12 25.55 552.68
  Q 16.82 542.71 7.56 533.19
  Q 3.44 528.96 0.00 524.20"
/>
<path stroke="#9e9ba5" vector-effect="non-scaling-stroke" d="
  M 0.00 493.21
  L 0.28 491.05
  Q 0.37 490.44 0.59 491.02
  Q 6.18 505.29 15.78 517.21
  Q 16.24 517.79 16.14 517.06
  Q 13.53 497.62 8.92 478.68
  C 8.10 475.34 6.62 471.76 5.63 468.20"
/>
<path stroke="#888591" vector-effect="non-scaling-stroke" d="
  M 5.63 468.20
  C 6.65 461.73 12.95 457.95 18.75 456.69"
/>
<path stroke="#9e9ba5" vector-effect="non-scaling-stroke" d="
  M 18.75 456.69
  C 20.44 458.47 22.29 460.43 23.42 462.72
  Q 30.02 475.98 39.80 484.94
  Q 55.21 499.07 62.57 506.93
  Q 80.51 526.10 88.99 550.99
  Q 89.13 551.39 89.25 550.99
  C 91.54 544.01 94.13 538.68 94.19 530.75
  C 94.30 516.18 94.48 503.35 92.67 491.10
  Q 92.16 487.70 92.13 484.21
  Q 92.13 483.71 91.86 483.28
  C 81.20 466.21 74.19 450.38 72.25 430.04
  Q 72.20 429.53 71.76 429.78
  C 61.69 435.42 47.76 440.28 35.85 438.48
  C 29.64 437.55 31.16 430.42 33.04 426.59
  C 43.82 404.55 49.10 378.55 49.79 353.75
  Q 49.97 347.28 48.89 333.80
  Q 46.69 306.30 45.96 278.72
  Q 45.95 278.20 45.43 278.11
  C 33.98 276.06 8.99 267.29 7.69 254.36
  Q 7.38 251.35 8.98 246.91
  C 20.04 216.18 32.34 183.62 49.95 156.00
  Q 50.22 155.58 49.73 155.45
  L 42.54 153.57"
/>
<path stroke="#5f5d6a" vector-effect="non-scaling-stroke" d="
  M 42.54 153.57
  Q 43.39 151.07 41.57 149.91
  C 36.27 146.55 38.17 140.68 39.23 135.88
  Q 39.34 135.40 39.70 135.07
  Q 40.81 134.03 41.23 132.49"
/>
<path stroke="#9e9ba5" vector-effect="non-scaling-stroke" d="
  M 41.23 132.49
  L 53.99 126.33
  Q 54.44 126.12 54.27 125.65
  C 53.06 122.17 51.06 118.37 50.00 115.50
  Q 44.24 99.82 43.48 86.50
  C 42.62 71.25 55.18 68.27 66.97 65.72
  Q 67.37 65.63 67.51 65.25
  L 72.05 53.28
  Q 72.21 52.87 71.81 52.68
  Q 57.93 46.04 42.76 45.11
  C 25.24 44.03 8.18 56.67 0.43 71.33"
/>
<path stroke="#a8a7ad" vector-effect="non-scaling-stroke" d="
  M 0.43 71.33
  Q 0.48 70.55 0.00 69.43"
/>
<path stroke="#a8a7ad" vector-effect="non-scaling-stroke" d="
  M 91.85 52.59
  Q 88.69 57.11 87.40 61.20
  Q 87.24 61.70 87.76 61.64
  Q 93.45 61.03 98.99 61.98
  C 107.69 63.48 116.38 64.55 125.01 66.24
  Q 126.68 66.56 128.75 64.44
  Q 129.07 64.11 128.77 63.76
  Q 128.04 62.93 127.02 62.51"
/>
<path stroke="#5f5d6a" vector-effect="non-scaling-stroke" d="
  M 127.02 62.51
  L 127.00 61.77
  Q 126.98 61.30 126.69 60.94
  Q 117.02 48.89 102.47 44.78
  C 99.90 44.05 97.70 44.14 95.76 46.28
  Q 92.82 49.51 91.85 52.59"
/>
<path stroke="#b7b6bc" vector-effect="non-scaling-stroke" d="
  M 127.02 62.51
  Q 109.74 56.14 91.85 52.59"
/>
<path stroke="#a8a7ad" vector-effect="non-scaling-stroke" d="
  M 62.67 98.69
  L 64.91 106.81"
/>
<path stroke="#5f5d6a" vector-effect="non-scaling-stroke" d="
  M 64.91 106.81
  L 68.90 116.27
  Q 69.14 116.84 69.64 116.48
  L 90.51 101.22
  A 1.27 1.25 -11.4 0 0 90.99 100.51
  C 91.07 100.17 95.66 96.95 96.37 96.32
  C 98.36 94.57 102.11 92.46 103.91 89.20
  C 105.63 86.06 107.91 84.40 110.00 81.82
  A 0.74 0.74 0.0 0 0 109.51 80.62
  Q 84.91 77.83 61.11 84.67
  A 1.07 1.07 0.0 0 0 60.34 85.89
  L 62.67 98.69"
/>
<path stroke="#b7b6bc" vector-effect="non-scaling-stroke" d="
  M 64.91 106.81
  Q 77.00 100.66 90.12 99.63
  Q 90.61 99.59 91.00 99.27
  C 94.28 96.55 97.51 92.54 101.48 91.12
  A 0.30 0.30 0.0 0 0 101.36 90.53
  C 92.37 91.17 83.05 91.60 74.62 94.25
  Q 68.52 96.17 62.67 98.69"
/>
<path stroke="#a8a7ad" vector-effect="non-scaling-stroke" d="
  M 34.71 257.17
  L 42.03 259.99"
/>
<path stroke="#5f5d6a" vector-effect="non-scaling-stroke" d="
  M 42.03 259.99
  L 45.65 261.12
  Q 46.32 261.33 46.27 260.63
  Q 46.22 259.95 45.46 259.77
  Q 44.87 259.63 45.11 259.08
  Q 46.06 256.89 45.31 254.80
  Q 45.13 254.32 45.30 253.84
  Q 46.57 250.19 46.12 246.23"
/>
<path stroke="#888591" vector-effect="non-scaling-stroke" d="
  M 46.12 246.23
  C 47.08 241.16 47.20 236.46 48.23 231.02
  Q 48.80 228.00 48.55 224.86"
/>
<path stroke="#a8a7ad" vector-effect="non-scaling-stroke" d="
  M 48.55 224.86
  L 49.32 221.51"
/>
<path stroke="#888591" vector-effect="non-scaling-stroke" d="
  M 49.32 221.51
  L 50.21 219.15"
/>
<path stroke="#5f5d6a" vector-effect="non-scaling-stroke" d="
  M 50.21 219.15
  Q 53.24 198.55 62.98 179.70
  Q 68.28 169.43 74.11 159.37
  A 0.40 0.39 14.6 0 0 73.76 158.78
  C 71.75 158.82 69.98 158.86 68.46 160.45
  Q 63.92 165.20 61.13 169.91
  C 46.32 194.81 35.50 223.70 25.23 251.29
  A 0.81 0.80 -65.9 0 0 25.60 252.28
  L 34.71 257.17"
/>
<path stroke="#9794a0" vector-effect="non-scaling-stroke" d="
  M 50.21 219.15
  Q 49.06 219.50 48.78 221.25"
/>
<path stroke="#b7b6bc" vector-effect="non-scaling-stroke" d="
  M 48.78 221.25
  C 42.69 233.63 36.54 245.25 34.71 257.17"
/>
<path stroke="#dfdee3" vector-effect="non-scaling-stroke" d="
  M 49.32 221.51
  Q 49.17 221.17 48.78 221.25"
/>
<path stroke="#dfdee3" vector-effect="non-scaling-stroke" d="
  M 48.55 224.86
  C 46.26 229.95 46.42 235.17 45.57 240.06
  Q 44.75 244.73 44.78 249.50"
/>
<path stroke="#b7b6bc" vector-effect="non-scaling-stroke" d="
  M 44.78 249.50
  L 42.03 259.99"
/>
<path stroke="#9794a0" vector-effect="non-scaling-stroke" d="
  M 46.12 246.23
  L 44.78 249.50"
/>
<path stroke="#5f5d6a" vector-effect="non-scaling-stroke" d="
  M 584.25 182.91
  L 591.29 187.61
  A 0.22 0.22 0.0 0 0 591.59 187.55
  L 591.97 186.98
  A 10.28 4.45 -56.3 0 0 593.97 175.96
  L 593.97 175.96
  A 10.28 4.45 -56.3 0 0 584.57 182.04
  L 584.19 182.61
  A 0.22 0.22 0.0 0 0 584.25 182.91"
/>
<path stroke="#5f5d6a" vector-effect="non-scaling-stroke" d="
  M 567.58 186.53
  L 562.37 202.32
  Q 562.20 202.82 562.66 203.08
  Q 572.41 208.44 579.13 217.34
  A 0.62 0.62 0.0 0 0 580.10 217.37
  Q 585.14 211.49 591.27 206.78
  Q 591.67 206.48 591.51 206.01
  Q 585.93 189.51 568.99 185.73
  Q 567.92 185.49 567.58 186.53"
/>
<path stroke="#5f5d6a" vector-effect="non-scaling-stroke" d="
  M 556.06 207.29
  L 555.08 208.47
  A 0.26 0.26 0.0 0 0 555.11 208.84
  L 555.22 208.93
  A 20.84 1.02 39.6 0 0 571.93 221.43
  L 571.94 221.41
  A 20.84 1.02 39.6 0 0 556.53 207.34
  L 556.42 207.25
  A 0.26 0.26 0.0 0 0 556.06 207.29"
/>
<path stroke="#5f5d6a" vector-effect="non-scaling-stroke" d="
  M 553.89 217.02
  C 547.51 224.22 542.26 231.25 534.47 236.43
  A 0.75 0.75 0.0 0 0 534.34 237.58
  Q 540.56 244.04 548.80 247.47
  A 0.74 0.74 0.0 0 0 549.80 246.98
  C 551.68 239.97 560.56 231.29 565.41 225.83
  Q 565.74 225.45 565.36 225.12
  L 555.64 216.89
  Q 554.70 216.10 553.89 217.02"
/>
<path stroke="#9e9ba5" vector-effect="non-scaling-stroke" d="
  M 544.68 286.84
  Q 546.82 287.93 548.33 288.96
  Q 563.96 299.52 580.83 307.95
  Q 581.34 308.20 581.31 307.64
  C 580.13 282.32 579.11 255.45 573.30 230.63
  Q 573.15 229.96 572.67 230.46
  C 566.67 236.77 555.99 246.36 557.82 253.00
  C 559.53 259.22 557.56 265.63 554.10 270.89
  A 0.95 0.93 -41.2 0 0 554.03 271.82
  C 556.65 277.39 549.07 284.54 544.69 286.42
  Q 544.24 286.61 544.68 286.84"
/>
<path stroke="#768696" vector-effect="non-scaling-stroke" d="
  M 558.06 392.25
  Q 546.32 387.61 532.50 387.55
  Q 507.94 387.43 485.53 393.35
  C 472.26 396.85 458.73 405.61 447.61 413.42"
/>
<path stroke="#a8a0a1" vector-effect="non-scaling-stroke" d="
  M 447.61 413.42
  Q 445.40 405.69 444.94 397.46
  Q 444.91 396.93 444.38 397.01
  C 438.28 397.94 431.94 396.78 425.84 396.26
  Q 385.34 392.79 355.80 365.25
  Q 355.44 364.91 355.26 364.45
  Q 355.09 363.99 354.65 363.79
  Q 354.15 363.56 354.26 364.10
  Q 355.55 370.39 357.05 376.61
  C 359.53 386.95 354.00 392.12 343.78 388.45
  Q 329.97 383.49 318.36 374.13"
/>
<path stroke="#5f5d6a" vector-effect="non-scaling-stroke" d="
  M 318.36 374.13
  C 316.81 372.43 313.19 377.23 314.81 379.42"
/>
<path stroke="#a8a0a1" vector-effect="non-scaling-stroke" d="
  M 314.81 379.42
  C 322.84 400.34 329.10 413.93 331.71 432.53"
/>
<path stroke="#768696" vector-effect="non-scaling-stroke" d="
  M 331.71 432.53
  Q 320.02 425.80 305.57 426.89
  C 283.38 428.55 264.31 437.08 244.28 449.00
  Q 241.90 450.42 237.45 453.93"
/>
<path stroke="#a8a0a1" vector-effect="non-scaling-stroke" d="
  M 237.45 453.93
  C 230.30 435.48 228.42 419.14 228.00 398.18
  C 227.93 394.90 228.57 391.76 229.19 388.58
  Q 229.29 388.05 229.01 388.51
  Q 221.63 400.44 213.50 411.86
  C 208.01 419.58 201.47 426.37 194.88 433.18
  A 1.79 1.78 48.6 0 0 194.74 435.49
  Q 221.17 470.95 240.56 513.08"
/>
<path stroke="#a88a7d" vector-effect="non-scaling-stroke" d="
  M 240.56 513.08
  L 243.83 520.61
  A 1.17 1.15 -1.5 0 0 244.53 521.26
  Q 253.09 524.16 256.74 524.55
  Q 305.29 529.76 354.33 528.27"
/>
<path stroke="#a8a0a1" vector-effect="non-scaling-stroke" d="
  M 354.33 528.27
  Q 382.23 526.89 409.88 521.76
  C 411.60 521.44 413.68 521.44 415.41 521.09"
/>
<path stroke="#916564" vector-effect="non-scaling-stroke" d="
  M 415.41 521.09
  Q 423.58 529.27 428.52 537.41"
/>
<path stroke="#a88a7d" vector-effect="non-scaling-stroke" d="
  M 428.52 537.41
  Q 432.15 541.39 435.78 544.75
  C 439.82 548.49 444.64 550.66 449.57 553.15
  A 0.93 0.91 43.2 0 0 450.45 553.13
  C 462.58 546.18 472.26 535.75 481.52 528.38
  C 483.11 527.12 483.10 526.21 483.13 524.29"
/>
<path stroke="#916564" vector-effect="non-scaling-stroke" d="
  M 483.13 524.29
  L 485.70 503.80"
/>
<path stroke="#a8a0a1" vector-effect="non-scaling-stroke" d="
  M 485.70 503.80
  L 495.74 500.25"
/>
<path stroke="#a88a7d" vector-effect="non-scaling-stroke" d="
  M 495.74 500.25
  Q 525.26 492.07 549.94 480.96
  Q 568.41 472.64 593.91 458.38"
/>
<path stroke="#a8a0a1" vector-effect="non-scaling-stroke" d="
  M 593.91 458.38
  C 600.48 453.79 603.11 446.87 606.17 438.42
  Q 606.32 438.02 605.93 438.20
  Q 594.04 443.81 581.05 447.54"
/>
<path stroke="#a88a7d" vector-effect="non-scaling-stroke" d="
  M 581.05 447.54
  Q 575.26 448.87 572.08 448.42
  Q 560.79 446.82 562.81 437.38"
/>
<path stroke="#a8a0a1" vector-effect="non-scaling-stroke" d="
  M 562.81 437.38
  C 563.22 434.85 563.29 432.20 564.05 429.92
  C 567.85 418.45 572.21 406.03 574.88 395.20
  Q 583.01 362.16 581.55 327.90
  A 0.84 0.84 0.0 0 0 581.08 327.18
  Q 543.20 308.73 510.66 282.17
  C 491.94 266.90 475.26 250.85 460.84 231.31
  A 0.15 0.14 27.5 0 0 460.58 231.39
  Q 460.25 247.61 459.09 263.83
  C 457.58 285.07 444.83 307.00 432.55 324.56
  Q 429.53 328.87 425.51 330.05
  Q 425.05 330.18 425.16 330.65
  L 426.49 336.00
  Q 426.66 336.68 427.12 336.14
  C 437.36 324.03 450.63 314.46 466.25 310.75
  C 481.57 307.12 494.58 306.39 510.69 308.31
  C 526.36 310.17 540.47 312.34 553.46 321.12
  Q 558.28 324.37 559.89 327.07
  C 563.46 333.04 559.70 342.42 552.28 342.77
  C 547.86 342.99 542.85 339.49 538.95 337.18
  A 0.29 0.29 0.0 0 0 538.55 337.57
  C 543.98 347.23 549.51 358.80 553.24 369.43
  C 555.70 376.42 556.59 384.52 558.06 392.25"
/>
<path stroke="#ffdbc2" vector-effect="non-scaling-stroke" d="
  M 562.81 437.38
  Q 560.11 438.47 555.96 436.91"
/>
<path stroke="#cdd7dc" vector-effect="non-scaling-stroke" d="
  M 555.96 436.91
  C 560.11 421.87 561.39 407.36 558.06 392.25"
/>
<path stroke="#ffdbc2" vector-effect="non-scaling-stroke" d="
  M 581.05 447.54
  Q 588.07 452.46 593.91 458.38"
/>
<path stroke="#cdc1b8" vector-effect="non-scaling-stroke" d="
  M 555.96 436.91
  C 548.58 451.28 521.33 461.23 505.76 462.52
  Q 502.49 462.79 499.29 463.11"
/>
<path stroke="#cdd7dc" vector-effect="non-scaling-stroke" d="
  M 447.61 413.42
  Q 452.74 434.77 465.38 452.29
  C 469.31 457.75 470.46 459.72 476.75 460.95
  Q 490.24 463.57 499.29 463.11"
/>
<path stroke="#ffdbc2" vector-effect="non-scaling-stroke" d="
  M 499.29 463.11
  Q 498.56 464.12 498.30 464.76
  Q 491.21 482.04 495.74 500.25"
/>
<path stroke="#e8b7aa" vector-effect="non-scaling-stroke" d="
  M 485.70 503.80
  C 461.25 511.99 442.66 516.07 415.41 521.09"
/>
<path stroke="#ffdbc2" vector-effect="non-scaling-stroke" d="
  M 354.33 528.27
  C 353.54 507.06 338.74 492.32 319.91 484.93"
/>
<path stroke="#cdd7dc" vector-effect="non-scaling-stroke" d="
  M 319.91 484.93
  C 324.85 481.03 330.89 476.72 331.86 471.58
  C 334.14 459.49 334.39 447.86 331.71 432.53"
/>
<path stroke="#b7afb0" vector-effect="non-scaling-stroke" d="
  M 314.81 379.42
  L 317.42 376.88
  Q 317.80 376.51 317.92 375.99
  L 318.36 374.13"
/>
<path stroke="#e8a186" vector-effect="non-scaling-stroke" d="
  M 483.13 524.29
  Q 456.14 533.03 428.52 537.41"
/>
<path stroke="#cdc1b8" vector-effect="non-scaling-stroke" d="
  M 319.91 484.93
  Q 308.16 492.43 294.53 494.34
  C 283.82 495.84 268.51 493.94 258.44 489.87"
/>
<path stroke="#cdd7dc" vector-effect="non-scaling-stroke" d="
  M 237.45 453.93
  Q 244.78 473.94 258.44 489.87"
/>
<path stroke="#ffdbc2" vector-effect="non-scaling-stroke" d="
  M 258.44 489.87
  Q 247.90 499.21 240.56 513.08"
/>
<path stroke="#5f5d6a" vector-effect="non-scaling-stroke" d="
  M 515.35 246.42
  C 523.90 255.70 534.69 263.92 546.60 266.72
  Q 547.12 266.84 547.41 266.38
  Q 549.93 262.34 550.01 257.53
  A 1.45 1.45 0.0 0 0 549.00 256.12
  C 540.31 253.37 530.72 247.84 526.33 239.51
  Q 526.08 239.02 525.54 239.17
  Q 519.74 240.78 515.41 244.88
  A 1.10 1.09 -43.1 0 0 515.35 246.42"
/>
<path stroke="#5f5d6a" vector-effect="non-scaling-stroke" d="
  M 514.69 263.31
  Q 523.64 271.47 533.96 275.31
  Q 535.94 276.05 536.73 277.02
  Q 537.06 277.43 537.55 277.61
  Q 541.54 279.08 544.40 276.29
  A 1.14 1.13 27.9 0 0 543.80 274.36
  C 530.66 272.02 517.59 261.43 509.06 251.56
  Q 508.68 251.12 508.43 251.64
  C 506.00 256.57 511.01 259.96 514.69 263.31"
/>
<path stroke="#a8a0a1" vector-effect="non-scaling-stroke" d="
  M 257.06 345.63
  C 270.56 342.98 286.87 346.05 299.31 353.09
  A 0.13 0.13 0.0 0 0 299.48 352.89
  Q 283.75 334.03 273.35 311.88
  A 0.31 0.31 0.0 0 0 272.77 311.91
  Q 266.62 329.46 256.82 345.28
  Q 256.54 345.73 257.06 345.63"
/>
<path stroke="#a8a7ad" vector-effect="non-scaling-stroke" d="
  M 500.5038 352.6200
  A 9.31 8.30 90.1 0 0 508.8200 343.3245
  A 9.31 8.30 90.1 0 0 500.5362 334.0000
  A 9.31 8.30 90.1 0 0 492.2200 343.2955
  A 9.31 8.30 90.1 0 0 500.5038 352.6200"
/>
<path stroke="#a8a0a1" vector-effect="non-scaling-stroke" d="
  M 445.94 345.69
  C 440.73 350.87 438.95 355.87 436.01 361.67
  A 3.13 3.12 -42.4 0 0 435.89 364.22
  Q 438.58 371.03 442.35 377.25
  Q 444.06 380.07 444.16 376.77
  C 444.45 366.97 444.68 355.89 446.69 345.56
  A 0.31 0.30 -5.0 0 0 446.28 345.22
  Q 445.94 345.36 445.94 345.69"
/>
<path stroke="#a8a7ad" vector-effect="non-scaling-stroke" d="
  M 282.2700 388.9732
  A 9.95 9.17 59.5 0 0 285.1211 375.7459
  A 9.95 9.17 59.5 0 0 272.1700 371.8268
  A 9.95 9.17 59.5 0 0 269.3189 385.0541
  A 9.95 9.17 59.5 0 0 282.2700 388.9732"
/>
<path stroke="#9e9ba5" vector-effect="non-scaling-stroke" d="
  M 184.22 532.06
  C 187.97 534.38 191.51 536.93 195.34 538.82
  Q 208.02 545.10 221.34 550.22
  Q 221.98 550.46 222.00 549.78
  Q 222.33 539.23 226.19 529.45
  A 1.33 1.30 -44.4 0 0 226.21 528.51
  C 219.03 507.78 207.19 487.60 195.66 468.99
  Q 195.47 468.67 195.51 469.04
  C 197.10 482.63 198.22 494.13 204.25 506.66
  C 205.93 510.16 205.70 514.24 206.99 518.06
  A 1.63 1.62 44.7 0 1 207.00 519.04
  C 203.90 528.94 192.80 526.07 185.96 523.31
  A 0.67 0.66 15.1 0 0 185.05 523.83
  L 183.95 531.48
  A 0.57 0.57 0.0 0 0 184.22 532.06"
/>
<path stroke="#9e9ba5" vector-effect="non-scaling-stroke" d="
  M 565.84 494.18
  Q 569.98 498.84 573.00 503.36
  Q 573.47 504.06 574.23 503.69
  Q 588.97 496.46 601.69 486.07
  A 0.20 0.20 0.0 0 0 601.50 485.72
  C 597.21 487.11 590.45 487.83 586.99 484.14
  A 0.83 0.83 0.0 0 0 586.02 483.96
  L 565.87 494.04
  A 0.09 0.09 0.0 0 0 565.84 494.18"
/>
<path stroke="#9e9ba5" vector-effect="non-scaling-stroke" d="
  M 515.86 513.77
  L 526.86 519.17
  A 0.66 0.66 0.0 0 0 527.54 519.10
  Q 535.66 512.89 541.56 504.53
  Q 541.66 504.39 541.50 504.46
  Q 529.84 509.66 517.47 512.92
  Q 516.58 513.16 515.85 513.55
  A 0.12 0.12 0.0 0 0 515.86 513.77"
/>
<path stroke="#9e9ba5" vector-effect="non-scaling-stroke" d="
  M 260.23 544.28
  L 276.46 557.62
  A 0.87 0.86 52.5 0 0 277.35 557.74
  Q 289.11 552.69 300.23 546.38
  Q 300.68 546.12 300.16 546.14
  C 286.94 546.61 273.51 545.18 260.47 543.70
  Q 259.37 543.58 260.23 544.28"
/>
<path stroke="#a8a7ad" vector-effect="non-scaling-stroke" d="
  M 465.57 564.29
  C 471.49 572.36 479.33 578.98 487.62 584.43
  Q 488.07 584.72 488.32 584.24
  Q 496.09 569.37 497.92 552.69
  Q 498.02 551.73 497.20 551.22
  L 488.32 545.81
  A 1.12 1.12 0.0 0 0 487.23 545.76
  Q 485.56 546.60 484.22 547.96
  Q 475.65 556.70 465.68 563.63
  Q 465.28 563.90 465.57 564.29"
/>
<path stroke="#9e9ba5" vector-effect="non-scaling-stroke" d="
  M 339.17 547.87
  C 341.50 549.33 349.57 554.37 351.97 553.48
  Q 359.14 550.80 365.60 546.49
  Q 365.78 546.37 365.56 546.38
  L 339.20 547.78
  Q 339.03 547.79 339.17 547.87"
/>
<path stroke="#a8a7ad" vector-effect="non-scaling-stroke" d="
  M 434.54 564.54
  Q 428.60 561.26 423.55 556.67
  Q 423.15 556.31 422.83 556.75
  L 414.04 568.78
  Q 413.25 569.86 413.90 571.02
  L 420.84 583.55
  A 0.58 0.58 0.0 0 0 421.81 583.62
  L 435.55 565.42
  A 0.39 0.39 0.0 0 0 435.45 564.86
  C 435.23 564.71 434.80 564.68 434.54 564.54"
/>
<path stroke="#5f5d6a" vector-effect="non-scaling-stroke" d="
  M 456.71 580.21
  L 451.42 573.51
  A 0.29 0.29 0.0 0 0 451.01 573.46
  L 450.43 573.92
  A 5.91 3.04 -38.3 0 0 447.67 579.97
  L 449.56 582.35
  A 5.91 3.04 -38.3 0 0 456.08 581.08
  L 456.66 580.62
  A 0.29 0.29 0.0 0 0 456.71 580.21"
/>
<path stroke="#5f5d6a" vector-effect="non-scaling-stroke" d="
  M 401.80 587.15
  A 0.32 0.32 0.0 0 0 402.39 587.10
  Q 402.70 586.19 402.11 585.31
  Q 401.60 584.57 401.49 585.46
  Q 401.38 586.37 401.80 587.15"
/>
<path stroke="#5f5d6a" vector-effect="non-scaling-stroke" d="
  M 500.99 603.01
  L 497.72 600.76
  A 0.86 0.85 46.4 0 0 496.81 600.73
  C 486.86 606.53 475.89 597.78 468.59 591.36
  A 0.52 0.52 0.0 0 0 467.83 591.44
  L 464.62 595.80
  A 1.08 1.06 46.7 0 0 464.59 597.01
  L 486.66 630.65
  A 0.36 0.36 0.0 0 0 487.27 630.64
  C 492.43 622.03 497.97 613.76 501.42 604.39
  Q 501.74 603.53 500.99 603.01"
/>
<path stroke="#5f5d6a" vector-effect="non-scaling-stroke" d="
  M 396.16 613.80
  L 408.82 624.38
  Q 409.34 624.81 409.69 624.23
  Q 415.56 614.58 420.02 604.19
  Q 420.23 603.70 419.70 603.64
  Q 414.14 602.96 410.80 598.59
  Q 410.44 598.12 410.03 598.54
  Q 403.69 604.84 397.35 611.14
  C 396.96 611.53 396.73 612.37 396.22 612.72
  A 0.68 0.68 0.0 0 0 396.16 613.80"
/>
<path stroke="#5f5d6a" vector-effect="non-scaling-stroke" d="
  M 482.25 650.75
  C 478.98 648.70 477.10 646.60 474.79 643.18
  Q 466.73 631.20 458.67 618.87
  A 0.34 0.34 0.0 0 0 458.04 619.08
  C 459.55 635.94 462.07 652.99 463.49 669.59
  A 1.01 1.00 -5.1 0 0 464.59 670.50
  L 485.63 668.49
  Q 487.90 668.27 487.19 666.11
  Q 484.99 659.37 483.50 652.52
  Q 483.25 651.37 482.25 650.75"
/>
<path stroke="#5f5d6a" vector-effect="non-scaling-stroke" d="
  M 403.67 665.74
  Q 412.44 671.95 422.04 676.80
  A 0.48 0.48 0.0 0 0 422.73 676.36
  Q 422.70 673.80 423.07 671.01
  Q 425.80 650.73 426.13 630.40
  A 0.24 0.24 0.0 0 0 425.67 630.28
  Q 421.20 638.64 412.97 643.18
  A 1.41 1.41 0.0 0 0 412.37 643.84
  L 403.38 664.68
  A 0.88 0.87 -60.5 0 0 403.67 665.74"
/>
<path stroke="#9e9ba5" vector-effect="non-scaling-stroke" d="
  M 646.31 0.00
  L 640.00 0.64
  A 0.15 0.14 57.8 0 0 639.94 0.91
  Q 667.18 17.22 686.79 44.22
  Q 690.65 49.54 692.39 53.20
  Q 692.51 53.44 692.53 53.18
  L 693.00 48.56"
/>
<path stroke="#d5d2db" vector-effect="non-scaling-stroke" d="
  M 631.73 420.33
  Q 633.18 419.05 635.04 417.29
  C 641.10 411.55 670.15 381.40 652.33 375.65
  C 647.67 374.14 644.21 377.98 642.06 381.51
  C 635.46 392.32 628.16 400.04 619.39 409.32"
/>
<path stroke="#d5d2db" vector-effect="non-scaling-stroke" d="
  M 460.91 200.92
  Q 460.62 199.15 460.43 194.31
  Q 460.00 183.79 456.01 159.78
  C 455.45 156.43 455.45 153.09 453.46 150.06
  C 447.44 140.90 437.13 148.85 438.46 157.76
  Q 442.53 184.82 444.02 204.47"
/>
<path stroke="#d5d2db" vector-effect="non-scaling-stroke" d="
  M 421.03 312.31
  Q 415.93 288.65 415.77 264.01
  C 415.69 250.86 399.06 250.30 398.76 263.08
  Q 398.07 292.71 406.43 325.32
  Q 406.54 325.77 407.19 326.47"
/>
<path stroke="#adaab4" vector-effect="non-scaling-stroke" d="
  M 347.74 326.06
  C 345.86 318.40 336.88 312.67 331.01 320.57
  C 328.00 324.63 330.13 328.20 331.21 332.11
  C 332.25 335.90 330.94 339.18 332.70 343.34"
/>
<path stroke="#d5d2db" vector-effect="non-scaling-stroke" d="
  M 281.01 285.93
  Q 281.37 284.45 281.25 284.00
  C 273.08 252.48 269.98 220.08 269.04 187.25
  Q 268.85 180.86 269.59 171.01"
/>
<path stroke="#f5f4f7" vector-effect="non-scaling-stroke" d="
  M 269.59 171.01
  Q 282.64 168.74 295.86 166.73
  C 318.47 163.30 340.72 157.82 362.58 151.11
  Q 367.91 149.47 373.05 147.27
  Q 410.18 131.36 443.88 109.27
  C 458.18 99.90 469.07 88.57 478.78 74.97
  C 481.01 71.84 484.68 68.88 486.69 64.90
  Q 487.07 64.13 486.22 64.23
  Q 485.87 64.27 485.37 64.65
  C 480.24 68.56 475.23 72.70 469.31 75.25
  C 454.28 81.75 440.14 85.47 422.93 89.16
  Q 414.01 91.07 405.42 91.77
  C 384.71 93.45 364.99 93.40 342.18 93.04
  C 332.08 92.89 320.40 92.26 311.75 91.48
  Q 310.52 91.37 307.43 89.93"
/>
<path stroke="#d5d2db" vector-effect="non-scaling-stroke" d="
  M 307.43 89.93
  Q 330.79 64.42 354.48 39.22
  Q 355.59 38.04 356.84 35.46
  C 359.79 29.37 354.11 21.41 347.39 24.26
  Q 343.99 25.70 341.69 28.19
  C 319.81 51.75 303.17 68.53 285.53 89.75"
/>
<path stroke="#f5f4f7" vector-effect="non-scaling-stroke" d="
  M 285.53 89.75
  C 268.05 86.58 251.00 81.94 234.11 76.78
  C 219.55 72.34 209.73 66.92 192.24 58.52
  Q 183.44 54.29 175.79 48.23
  C 174.36 47.10 173.04 46.62 171.39 45.90"
/>
<path stroke="#999ca8" vector-effect="non-scaling-stroke" d="
  M 666.79 0.00
  Q 669.15 0.27 670.40 1.36
  Q 682.60 11.97 693.00 24.93"
/>
<path stroke="#dfdee3" vector-effect="non-scaling-stroke" d="
  M 307.43 89.93
  Q 305.30 92.84 302.94 95.66
  Q 293.28 107.18 284.08 119.08
  C 272.84 133.63 270.22 153.84 269.59 171.01"
/>
<path stroke="#d5d2db" vector-effect="non-scaling-stroke" d="
  M 264.65 287.46
  C 254.66 250.88 251.54 210.81 252.18 173.10"
/>
<path stroke="#dfdee3" vector-effect="non-scaling-stroke" d="
  M 252.18 173.10
  C 253.00 154.41 255.23 134.90 264.64 118.02
  C 269.64 109.05 278.33 98.90 285.53 89.75"
/>
<path stroke="#adaab4" vector-effect="non-scaling-stroke" d="
  M 41.23 132.49
  C 28.44 135.91 35.74 149.51 42.54 153.57"
/>
<path stroke="#d5d2db" vector-effect="non-scaling-stroke" d="
  M 18.75 456.69
  Q 17.27 446.47 13.87 436.86
  C 11.97 431.49 8.86 428.33 2.98 429.96
  Q 2.46 430.11 2.44 430.65
  Q 2.36 432.49 0.82 432.33
  Q 0.35 432.28 0.27 432.76
  L 0.00 434.44"
/>
<path stroke="#f5f4f7" vector-effect="non-scaling-stroke" d="
  M 0.00 78.19
  L 0.43 71.33"
/>
<path stroke="#f5f4f7" vector-effect="non-scaling-stroke" d="
  M 252.18 173.10
  Q 236.53 176.13 220.57 176.85
  C 201.36 177.72 181.03 178.95 163.55 177.94
  Q 132.13 176.13 102.79 159.46
  Q 100.72 158.28 100.97 156.56"
/>
<path stroke="#b7b6bc" vector-effect="non-scaling-stroke" d="
  M 101.71 155.81
  C 110.14 151.93 113.86 140.15 101.96 137.16"
/>
<path stroke="#d5d2db" vector-effect="non-scaling-stroke" d="
  M 191.15 411.98
  Q 186.96 379.18 189.39 347.07
  C 191.45 319.89 195.19 292.01 203.00 265.84
  C 205.78 256.54 209.95 246.72 213.74 237.24
  C 216.80 229.60 218.66 223.06 209.64 219.45
  A 1.62 1.62 0.0 0 0 208.62 219.39
  C 201.90 221.12 200.99 225.09 197.69 232.27
  Q 184.98 259.96 179.47 289.99
  Q 173.17 324.31 171.76 353.50
  Q 170.15 386.73 175.18 424.57"
/>
<path stroke="#d5d2db" vector-effect="non-scaling-stroke" d="
  M 172.88 496.46
  Q 165.43 489.70 161.95 485.80
  C 153.33 476.12 149.08 463.23 145.08 450.84
  C 143.32 445.37 138.03 440.52 132.26 444.90
  C 128.10 448.05 127.92 452.16 129.34 457.17
  C 135.91 480.47 146.66 500.81 169.31 511.86"
/>
<path stroke="#d5d2db" vector-effect="non-scaling-stroke" d="
  M 88.90 418.78
  L 88.59 410.15"
/>
<path stroke="#d5d2db" vector-effect="non-scaling-stroke" d="
  M 63.04 278.77
  L 63.61 237.82"
/>
<path stroke="#e8b7aa" vector-effect="non-scaling-stroke" d="
  M 389.28 497.40
  C 381.95 497.40 382.88 506.37 390.75 506.48
  C 402.28 506.64 410.88 503.49 422.00 497.51
  C 426.71 494.98 427.54 489.40 421.94 487.41
  Q 421.41 487.22 420.91 487.49
  C 409.24 493.89 401.58 497.39 389.28 497.40"
/>
<path stroke="#d5d2db" vector-effect="non-scaling-stroke" d="
  M 5.63 468.20
  Q 4.09 466.12 4.37 463.86
  Q 4.41 463.51 4.09 463.36
  L 3.43 463.05
  Q 3.00 462.85 3.16 462.41
  Q 3.50 461.42 2.89 461.04
  Q 2.45 460.75 2.42 460.23
  Q 2.26 457.39 1.28 454.76
  C 0.24 451.94 0.28 449.97 0.00 447.18"
/>
</g>
<path fill="#e2eaf5" d="
  M 0.00 0.00
  L 189.80 0.00
  Q 195.87 -0.29 200.87 1.55
  C 178.46 14.94 160.00 31.99 142.37 51.07
  A 0.68 0.67 42.3 0 1 141.42 51.11
  C 132.05 42.49 123.54 33.49 110.59 29.63
  C 96.83 25.52 90.16 26.77 80.96 37.68
  Q 80.64 38.07 80.19 37.85
  C 63.86 30.05 40.71 24.23 22.57 31.07
  Q 9.86 35.86 0.00 45.54
  L 0.00 0.00
  Z"
/>
<path fill="#ffffff" d="
  M 189.80 0.00
  L 205.32 0.00
  L 200.87 1.55
  Q 195.87 -0.29 189.80 0.00
  Z"
/>
<path fill="#504e5b" d="
  M 205.32 0.00
  L 238.31 0.00
  L 243.49 0.68
  Q 244.54 0.82 243.50 1.02
  Q 240.48 1.59 238.26 2.51
  C 212.87 13.01 190.81 26.19 171.39 45.90
  Q 123.14 93.90 108.54 107.29
  C 94.40 120.24 78.99 130.63 62.85 140.86
  Q 62.34 141.19 62.94 141.24
  Q 74.18 142.15 85.23 139.90
  Q 93.95 138.12 101.96 137.16
  C 108.62 145.29 109.43 148.26 101.71 155.81
  Q 101.20 156.06 100.97 156.56
  Q 94.78 160.35 91.25 165.26
  C 77.37 184.59 66.71 209.67 64.28 233.90
  Q 64.07 236.00 63.61 237.82
  Q 61.78 249.79 61.73 260.75
  Q 61.70 269.25 63.04 278.77
  Q 63.96 306.67 66.17 334.54
  C 68.43 363.13 64.72 390.54 55.47 417.97
  Q 55.21 418.75 55.98 418.47
  Q 62.89 416.00 68.61 410.89
  C 73.06 406.93 74.55 395.19 84.08 401.06
  C 87.24 403.00 88.24 406.64 88.59 410.15
  Q 87.78 414.39 88.90 418.78
  C 88.53 467.86 125.76 499.92 159.05 529.70
  Q 161.19 531.62 165.11 534.30
  Q 165.57 534.61 165.66 534.06
  L 169.31 511.86
  L 172.88 496.46
  Q 177.86 500.36 184.29 501.67
  Q 184.95 501.81 184.68 501.19
  Q 180.14 490.78 179.30 479.44
  Q 177.41 453.86 175.17 428.31
  Q 174.94 425.72 175.18 424.57
  L 191.15 411.98
  Q 196.61 406.89 201.02 400.26
  Q 225.44 363.64 242.52 336.10
  C 251.80 321.15 257.96 303.78 264.65 287.46
  Q 272.54 282.94 281.01 285.93
  C 281.44 286.31 281.91 286.65 282.10 287.21
  Q 292.30 317.58 312.38 342.17
  C 320.90 352.59 327.08 360.01 336.88 366.60
  Q 337.45 366.98 337.31 366.31
  L 332.70 343.34
  Q 334.75 335.81 332.20 328.29
  C 330.46 323.19 336.62 320.20 340.59 319.89
  Q 341.11 319.85 341.49 320.20
  L 347.74 326.06
  C 364.01 355.69 388.97 374.63 423.07 378.77
  Q 423.48 378.82 423.32 378.44
  Q 413.02 354.29 407.05 328.74
  Q 406.92 328.18 407.19 326.47
  Q 415.31 319.50 421.03 312.31
  C 430.67 297.65 440.95 278.34 441.99 262.00
  Q 443.86 232.93 443.51 208.50
  Q 443.48 206.46 444.02 204.47
  Q 451.50 201.50 460.91 200.92
  Q 465.04 206.56 469.00 212.66
  C 478.31 226.97 488.53 239.60 500.92 251.41
  Q 501.29 251.77 501.50 251.29
  C 503.29 247.24 506.28 245.29 508.26 241.57
  C 511.48 235.53 520.20 231.60 526.86 230.25
  C 536.01 228.39 543.26 215.63 548.58 209.28
  A 1.60 1.52 70.1 0 0 548.94 208.46
  Q 549.37 204.78 552.76 203.26
  Q 553.18 203.07 553.36 202.64
  Q 557.58 192.85 558.32 182.19
  Q 558.36 181.68 558.70 181.31
  C 564.09 175.43 569.16 176.60 576.02 178.84
  A 0.76 0.76 0.0 0 0 576.84 178.60
  C 581.70 172.63 588.91 161.71 597.99 168.84
  C 602.96 172.75 608.76 177.18 604.77 183.31
  Q 599.99 190.64 596.14 194.87
  Q 595.83 195.21 596.06 195.62
  C 598.97 200.81 602.41 210.06 595.70 213.96
  Q 591.47 216.41 588.97 219.77
  A 1.17 1.15 -34.4 0 0 588.78 220.73
  C 595.95 250.13 597.49 283.39 598.63 312.31
  C 598.76 315.79 600.20 320.13 599.78 324.07
  Q 599.16 329.93 599.15 330.45
  C 598.78 357.42 597.02 381.09 589.37 406.70
  Q 586.07 417.72 582.58 428.63
  Q 582.41 429.16 582.94 429.00
  Q 603.17 422.66 619.39 409.32
  C 622.94 411.44 627.42 414.09 629.69 417.47
  Q 630.55 418.74 631.73 420.33
  Q 629.78 429.73 625.29 438.60
  C 620.51 448.06 617.01 457.60 611.35 466.64
  Q 611.15 466.95 611.52 466.93
  C 640.51 465.16 664.94 454.03 689.15 438.22
  C 690.28 437.48 691.00 436.62 691.83 435.57
  Q 692.32 434.94 692.43 435.73
  L 693.00 439.56
  L 693.00 454.56
  Q 692.98 457.08 691.51 457.15
  Q 691.00 457.18 690.55 457.45
  C 671.72 468.75 651.69 478.45 630.13 481.91
  C 627.33 482.35 626.60 485.28 624.93 486.93
  C 610.80 500.95 599.07 510.67 581.05 519.28
  C 568.91 525.08 564.42 519.63 557.64 511.29
  A 0.40 0.40 0.0 0 0 556.99 511.34
  Q 548.98 525.20 535.24 534.24
  C 530.17 537.58 525.96 537.48 520.25 534.90
  Q 510.94 530.69 502.28 525.25
  Q 502.05 525.10 501.93 524.85
  L 501.80 524.58
  Q 501.25 523.43 501.25 524.71
  L 501.25 530.26
  A 2.79 2.78 -72.4 0 0 502.42 532.53
  C 534.82 555.57 562.56 588.47 583.34 622.17
  C 595.74 642.29 611.28 667.32 618.44 692.00
  Q 618.62 692.63 617.97 692.68
  L 613.93 693.00
  L 600.85 693.00
  Q 597.30 693.04 595.99 688.76
  Q 594.54 684.04 594.49 683.90
  Q 566.24 616.16 513.54 565.13
  Q 513.11 564.72 513.01 565.30
  Q 511.07 576.00 506.11 585.69
  Q 505.84 586.21 506.35 586.51
  C 511.83 589.67 517.69 593.01 518.92 599.69
  C 521.06 611.29 504.73 634.32 499.01 643.91
  Q 498.75 644.35 499.00 644.80
  Q 500.46 647.41 500.80 649.00
  Q 502.51 657.03 505.84 664.51
  C 511.81 677.95 493.36 685.75 482.99 685.97
  Q 475.29 686.13 469.05 687.26
  Q 461.90 688.56 459.84 688.41
  C 449.15 687.59 447.61 679.51 446.68 669.83
  Q 444.99 652.40 442.94 635.00
  Q 442.83 634.04 442.81 635.01
  Q 442.53 651.90 441.13 662.68
  Q 439.61 674.46 439.28 680.51
  Q 438.99 685.75 434.24 692.10
  Q 433.95 692.49 433.46 692.56
  L 430.44 693.00
  L 418.50 693.00
  Q 403.30 687.19 390.57 676.92
  C 385.11 672.51 384.72 666.85 387.18 660.27
  C 389.47 654.17 392.97 643.47 397.96 638.02
  Q 398.28 637.66 397.92 637.36
  L 380.83 622.89
  Q 380.48 622.60 380.28 623.00
  C 369.81 643.52 357.60 668.56 352.90 692.23
  Q 352.81 692.67 352.37 692.73
  L 350.43 693.00
  L 335.94 693.00
  L 333.95 692.69
  Q 333.35 692.59 333.49 692.00
  C 343.52 648.49 367.37 603.85 392.17 567.70
  C 394.19 564.74 394.99 561.71 397.56 558.93
  Q 403.73 552.27 407.42 546.41
  Q 408.91 544.04 406.70 541.82
  A 0.95 0.94 63.0 0 0 405.92 541.56
  C 401.66 542.16 394.12 542.51 390.41 544.29
  Q 389.95 544.51 389.86 545.01
  Q 389.36 547.83 386.85 550.33
  Q 373.31 563.84 356.44 570.16
  C 350.76 572.29 347.67 571.46 342.47 569.06
  Q 330.14 563.35 320.53 553.84
  A 1.15 1.14 -41.1 0 0 319.04 553.74
  Q 301.48 566.81 280.67 574.69
  Q 275.23 576.75 270.42 573.60
  C 259.01 566.14 249.51 557.09 239.66 547.77
  Q 239.24 547.38 239.14 547.94
  C 238.24 552.92 237.58 559.81 235.34 563.57
  C 228.92 574.35 210.68 564.35 202.14 560.80
  Q 190.56 555.98 179.48 549.54
  A 0.49 0.48 -58.7 0 0 178.83 549.70
  C 172.20 560.05 160.89 553.68 154.24 548.02
  Q 133.69 530.53 111.41 507.68
  Q 111.04 507.31 111.06 507.83
  C 111.50 522.13 112.60 534.73 109.05 545.31
  C 105.18 556.84 100.25 576.89 89.48 583.47
  C 84.28 586.64 77.94 584.71 75.57 579.20
  C 73.97 575.46 74.27 569.37 74.15 564.82
  Q 73.96 557.86 70.26 549.21
  C 61.51 528.74 47.45 514.22 31.14 499.78
  Q 30.62 499.32 30.72 500.01
  C 32.90 514.50 36.98 527.90 40.76 542.11
  C 42.05 546.96 41.80 551.12 37.88 554.17
  C 34.12 557.10 28.56 556.12 25.55 552.68
  Q 16.82 542.71 7.56 533.19
  Q 3.44 528.96 0.00 524.20
  L 0.00 493.21
  L 0.28 491.05
  Q 0.37 490.44 0.59 491.02
  Q 6.18 505.29 15.78 517.21
  Q 16.24 517.79 16.14 517.06
  Q 13.53 497.62 8.92 478.68
  C 8.10 475.34 6.62 471.76 5.63 468.20
  C 6.65 461.73 12.95 457.95 18.75 456.69
  C 20.44 458.47 22.29 460.43 23.42 462.72
  Q 30.02 475.98 39.80 484.94
  Q 55.21 499.07 62.57 506.93
  Q 80.51 526.10 88.99 550.99
  Q 89.13 551.39 89.25 550.99
  C 91.54 544.01 94.13 538.68 94.19 530.75
  C 94.30 516.18 94.48 503.35 92.67 491.10
  Q 92.16 487.70 92.13 484.21
  Q 92.13 483.71 91.86 483.28
  C 81.20 466.21 74.19 450.38 72.25 430.04
  Q 72.20 429.53 71.76 429.78
  C 61.69 435.42 47.76 440.28 35.85 438.48
  C 29.64 437.55 31.16 430.42 33.04 426.59
  C 43.82 404.55 49.10 378.55 49.79 353.75
  Q 49.97 347.28 48.89 333.80
  Q 46.69 306.30 45.96 278.72
  Q 45.95 278.20 45.43 278.11
  C 33.98 276.06 8.99 267.29 7.69 254.36
  Q 7.38 251.35 8.98 246.91
  C 20.04 216.18 32.34 183.62 49.95 156.00
  Q 50.22 155.58 49.73 155.45
  L 42.54 153.57
  Q 43.39 151.07 41.57 149.91
  C 36.27 146.55 38.17 140.68 39.23 135.88
  Q 39.34 135.40 39.70 135.07
  Q 40.81 134.03 41.23 132.49
  L 53.99 126.33
  Q 54.44 126.12 54.27 125.65
  C 53.06 122.17 51.06 118.37 50.00 115.50
  Q 44.24 99.82 43.48 86.50
  C 42.62 71.25 55.18 68.27 66.97 65.72
  Q 67.37 65.63 67.51 65.25
  L 72.05 53.28
  Q 72.21 52.87 71.81 52.68
  Q 57.93 46.04 42.76 45.11
  C 25.24 44.03 8.18 56.67 0.43 71.33
  Q 0.48 70.55 0.00 69.43
  L 0.00 45.54
  Q 9.86 35.86 22.57 31.07
  C 40.71 24.23 63.86 30.05 80.19 37.85
  Q 80.64 38.07 80.96 37.68
  C 90.16 26.77 96.83 25.52 110.59 29.63
  C 123.54 33.49 132.05 42.49 141.42 51.11
  A 0.68 0.67 42.3 0 0 142.37 51.07
  C 160.00 31.99 178.46 14.94 200.87 1.55
  L 205.32 0.00
  Z
  M 91.85 52.59
  Q 88.69 57.11 87.40 61.20
  Q 87.24 61.70 87.76 61.64
  Q 93.45 61.03 98.99 61.98
  C 107.69 63.48 116.38 64.55 125.01 66.24
  Q 126.68 66.56 128.75 64.44
  Q 129.07 64.11 128.77 63.76
  Q 128.04 62.93 127.02 62.51
  L 127.00 61.77
  Q 126.98 61.30 126.69 60.94
  Q 117.02 48.89 102.47 44.78
  C 99.90 44.05 97.70 44.14 95.76 46.28
  Q 92.82 49.51 91.85 52.59
  Z
  M 62.67 98.69
  L 64.91 106.81
  L 68.90 116.27
  Q 69.14 116.84 69.64 116.48
  L 90.51 101.22
  A 1.27 1.25 -11.4 0 0 90.99 100.51
  C 91.07 100.17 95.66 96.95 96.37 96.32
  C 98.36 94.57 102.11 92.46 103.91 89.20
  C 105.63 86.06 107.91 84.40 110.00 81.82
  A 0.74 0.74 0.0 0 0 109.51 80.62
  Q 84.91 77.83 61.11 84.67
  A 1.07 1.07 0.0 0 0 60.34 85.89
  L 62.67 98.69
  Z
  M 34.71 257.17
  L 42.03 259.99
  L 45.65 261.12
  Q 46.32 261.33 46.27 260.63
  Q 46.22 259.95 45.46 259.77
  Q 44.87 259.63 45.11 259.08
  Q 46.06 256.89 45.31 254.80
  Q 45.13 254.32 45.30 253.84
  Q 46.57 250.19 46.12 246.23
  C 47.08 241.16 47.20 236.46 48.23 231.02
  Q 48.80 228.00 48.55 224.86
  L 49.32 221.51
  L 50.21 219.15
  Q 53.24 198.55 62.98 179.70
  Q 68.28 169.43 74.11 159.37
  A 0.40 0.39 14.6 0 0 73.76 158.78
  C 71.75 158.82 69.98 158.86 68.46 160.45
  Q 63.92 165.20 61.13 169.91
  C 46.32 194.81 35.50 223.70 25.23 251.29
  A 0.81 0.80 -65.9 0 0 25.60 252.28
  L 34.71 257.17
  Z
  M 584.25 182.91
  L 591.29 187.61
  A 0.22 0.22 0.0 0 0 591.59 187.55
  L 591.97 186.98
  A 10.28 4.45 -56.3 0 0 593.97 175.96
  L 593.97 175.96
  A 10.28 4.45 -56.3 0 0 584.57 182.04
  L 584.19 182.61
  A 0.22 0.22 0.0 0 0 584.25 182.91
  Z
  M 567.58 186.53
  L 562.37 202.32
  Q 562.20 202.82 562.66 203.08
  Q 572.41 208.44 579.13 217.34
  A 0.62 0.62 0.0 0 0 580.10 217.37
  Q 585.14 211.49 591.27 206.78
  Q 591.67 206.48 591.51 206.01
  Q 585.93 189.51 568.99 185.73
  Q 567.92 185.49 567.58 186.53
  Z
  M 556.06 207.29
  L 555.08 208.47
  A 0.26 0.26 0.0 0 0 555.11 208.84
  L 555.22 208.93
  A 20.84 1.02 39.6 0 0 571.93 221.43
  L 571.94 221.41
  A 20.84 1.02 39.6 0 0 556.53 207.34
  L 556.42 207.25
  A 0.26 0.26 0.0 0 0 556.06 207.29
  Z
  M 553.89 217.02
  C 547.51 224.22 542.26 231.25 534.47 236.43
  A 0.75 0.75 0.0 0 0 534.34 237.58
  Q 540.56 244.04 548.80 247.47
  A 0.74 0.74 0.0 0 0 549.80 246.98
  C 551.68 239.97 560.56 231.29 565.41 225.83
  Q 565.74 225.45 565.36 225.12
  L 555.64 216.89
  Q 554.70 216.10 553.89 217.02
  Z
  M 544.68 286.84
  Q 546.82 287.93 548.33 288.96
  Q 563.96 299.52 580.83 307.95
  Q 581.34 308.20 581.31 307.64
  C 580.13 282.32 579.11 255.45 573.30 230.63
  Q 573.15 229.96 572.67 230.46
  C 566.67 236.77 555.99 246.36 557.82 253.00
  C 559.53 259.22 557.56 265.63 554.10 270.89
  A 0.95 0.93 -41.2 0 0 554.03 271.82
  C 556.65 277.39 549.07 284.54 544.69 286.42
  Q 544.24 286.61 544.68 286.84
  Z
  M 558.06 392.25
  Q 546.32 387.61 532.50 387.55
  Q 507.94 387.43 485.53 393.35
  C 472.26 396.85 458.73 405.61 447.61 413.42
  Q 445.40 405.69 444.94 397.46
  Q 444.91 396.93 444.38 397.01
  C 438.28 397.94 431.94 396.78 425.84 396.26
  Q 385.34 392.79 355.80 365.25
  Q 355.44 364.91 355.26 364.45
  Q 355.09 363.99 354.65 363.79
  Q 354.15 363.56 354.26 364.10
  Q 355.55 370.39 357.05 376.61
  C 359.53 386.95 354.00 392.12 343.78 388.45
  Q 329.97 383.49 318.36 374.13
  C 316.81 372.43 313.19 377.23 314.81 379.42
  C 322.84 400.34 329.10 413.93 331.71 432.53
  Q 320.02 425.80 305.57 426.89
  C 283.38 428.55 264.31 437.08 244.28 449.00
  Q 241.90 450.42 237.45 453.93
  C 230.30 435.48 228.42 419.14 228.00 398.18
  C 227.93 394.90 228.57 391.76 229.19 388.58
  Q 229.29 388.05 229.01 388.51
  Q 221.63 400.44 213.50 411.86
  C 208.01 419.58 201.47 426.37 194.88 433.18
  A 1.79 1.78 48.6 0 0 194.74 435.49
  Q 221.17 470.95 240.56 513.08
  L 243.83 520.61
  A 1.17 1.15 -1.5 0 0 244.53 521.26
  Q 253.09 524.16 256.74 524.55
  Q 305.29 529.76 354.33 528.27
  Q 382.23 526.89 409.88 521.76
  C 411.60 521.44 413.68 521.44 415.41 521.09
  Q 423.58 529.27 428.52 537.41
  Q 432.15 541.39 435.78 544.75
  C 439.82 548.49 444.64 550.66 449.57 553.15
  A 0.93 0.91 43.2 0 0 450.45 553.13
  C 462.58 546.18 472.26 535.75 481.52 528.38
  C 483.11 527.12 483.10 526.21 483.13 524.29
  L 485.70 503.80
  L 495.74 500.25
  Q 525.26 492.07 549.94 480.96
  Q 568.41 472.64 593.91 458.38
  C 600.48 453.79 603.11 446.87 606.17 438.42
  Q 606.32 438.02 605.93 438.20
  Q 594.04 443.81 581.05 447.54
  Q 575.26 448.87 572.08 448.42
  Q 560.79 446.82 562.81 437.38
  C 563.22 434.85 563.29 432.20 564.05 429.92
  C 567.85 418.45 572.21 406.03 574.88 395.20
  Q 583.01 362.16 581.55 327.90
  A 0.84 0.84 0.0 0 0 581.08 327.18
  Q 543.20 308.73 510.66 282.17
  C 491.94 266.90 475.26 250.85 460.84 231.31
  A 0.15 0.14 27.5 0 0 460.58 231.39
  Q 460.25 247.61 459.09 263.83
  C 457.58 285.07 444.83 307.00 432.55 324.56
  Q 429.53 328.87 425.51 330.05
  Q 425.05 330.18 425.16 330.65
  L 426.49 336.00
  Q 426.66 336.68 427.12 336.14
  C 437.36 324.03 450.63 314.46 466.25 310.75
  C 481.57 307.12 494.58 306.39 510.69 308.31
  C 526.36 310.17 540.47 312.34 553.46 321.12
  Q 558.28 324.37 559.89 327.07
  C 563.46 333.04 559.70 342.42 552.28 342.77
  C 547.86 342.99 542.85 339.49 538.95 337.18
  A 0.29 0.29 0.0 0 0 538.55 337.57
  C 543.98 347.23 549.51 358.80 553.24 369.43
  C 555.70 376.42 556.59 384.52 558.06 392.25
  Z
  M 515.35 246.42
  C 523.90 255.70 534.69 263.92 546.60 266.72
  Q 547.12 266.84 547.41 266.38
  Q 549.93 262.34 550.01 257.53
  A 1.45 1.45 0.0 0 0 549.00 256.12
  C 540.31 253.37 530.72 247.84 526.33 239.51
  Q 526.08 239.02 525.54 239.17
  Q 519.74 240.78 515.41 244.88
  A 1.10 1.09 -43.1 0 0 515.35 246.42
  Z
  M 514.69 263.31
  Q 523.64 271.47 533.96 275.31
  Q 535.94 276.05 536.73 277.02
  Q 537.06 277.43 537.55 277.61
  Q 541.54 279.08 544.40 276.29
  A 1.14 1.13 27.9 0 0 543.80 274.36
  C 530.66 272.02 517.59 261.43 509.06 251.56
  Q 508.68 251.12 508.43 251.64
  C 506.00 256.57 511.01 259.96 514.69 263.31
  Z
  M 257.06 345.63
  C 270.56 342.98 286.87 346.05 299.31 353.09
  A 0.13 0.13 0.0 0 0 299.48 352.89
  Q 283.75 334.03 273.35 311.88
  A 0.31 0.31 0.0 0 0 272.77 311.91
  Q 266.62 329.46 256.82 345.28
  Q 256.54 345.73 257.06 345.63
  Z
  M 500.5038 352.6200
  A 9.31 8.30 90.1 0 0 508.8200 343.3245
  A 9.31 8.30 90.1 0 0 500.5362 334.0000
  A 9.31 8.30 90.1 0 0 492.2200 343.2955
  A 9.31 8.30 90.1 0 0 500.5038 352.6200
  Z
  M 445.94 345.69
  C 440.73 350.87 438.95 355.87 436.01 361.67
  A 3.13 3.12 -42.4 0 0 435.89 364.22
  Q 438.58 371.03 442.35 377.25
  Q 444.06 380.07 444.16 376.77
  C 444.45 366.97 444.68 355.89 446.69 345.56
  A 0.31 0.30 -5.0 0 0 446.28 345.22
  Q 445.94 345.36 445.94 345.69
  Z
  M 282.2700 388.9732
  A 9.95 9.17 59.5 0 0 285.1211 375.7459
  A 9.95 9.17 59.5 0 0 272.1700 371.8268
  A 9.95 9.17 59.5 0 0 269.3189 385.0541
  A 9.95 9.17 59.5 0 0 282.2700 388.9732
  Z
  M 184.22 532.06
  C 187.97 534.38 191.51 536.93 195.34 538.82
  Q 208.02 545.10 221.34 550.22
  Q 221.98 550.46 222.00 549.78
  Q 222.33 539.23 226.19 529.45
  A 1.33 1.30 -44.4 0 0 226.21 528.51
  C 219.03 507.78 207.19 487.60 195.66 468.99
  Q 195.47 468.67 195.51 469.04
  C 197.10 482.63 198.22 494.13 204.25 506.66
  C 205.93 510.16 205.70 514.24 206.99 518.06
  A 1.63 1.62 44.7 0 1 207.00 519.04
  C 203.90 528.94 192.80 526.07 185.96 523.31
  A 0.67 0.66 15.1 0 0 185.05 523.83
  L 183.95 531.48
  A 0.57 0.57 0.0 0 0 184.22 532.06
  Z
  M 565.84 494.18
  Q 569.98 498.84 573.00 503.36
  Q 573.47 504.06 574.23 503.69
  Q 588.97 496.46 601.69 486.07
  A 0.20 0.20 0.0 0 0 601.50 485.72
  C 597.21 487.11 590.45 487.83 586.99 484.14
  A 0.83 0.83 0.0 0 0 586.02 483.96
  L 565.87 494.04
  A 0.09 0.09 0.0 0 0 565.84 494.18
  Z
  M 515.86 513.77
  L 526.86 519.17
  A 0.66 0.66 0.0 0 0 527.54 519.10
  Q 535.66 512.89 541.56 504.53
  Q 541.66 504.39 541.50 504.46
  Q 529.84 509.66 517.47 512.92
  Q 516.58 513.16 515.85 513.55
  A 0.12 0.12 0.0 0 0 515.86 513.77
  Z
  M 260.23 544.28
  L 276.46 557.62
  A 0.87 0.86 52.5 0 0 277.35 557.74
  Q 289.11 552.69 300.23 546.38
  Q 300.68 546.12 300.16 546.14
  C 286.94 546.61 273.51 545.18 260.47 543.70
  Q 259.37 543.58 260.23 544.28
  Z
  M 465.57 564.29
  C 471.49 572.36 479.33 578.98 487.62 584.43
  Q 488.07 584.72 488.32 584.24
  Q 496.09 569.37 497.92 552.69
  Q 498.02 551.73 497.20 551.22
  L 488.32 545.81
  A 1.12 1.12 0.0 0 0 487.23 545.76
  Q 485.56 546.60 484.22 547.96
  Q 475.65 556.70 465.68 563.63
  Q 465.28 563.90 465.57 564.29
  Z
  M 339.17 547.87
  C 341.50 549.33 349.57 554.37 351.97 553.48
  Q 359.14 550.80 365.60 546.49
  Q 365.78 546.37 365.56 546.38
  L 339.20 547.78
  Q 339.03 547.79 339.17 547.87
  Z
  M 434.54 564.54
  Q 428.60 561.26 423.55 556.67
  Q 423.15 556.31 422.83 556.75
  L 414.04 568.78
  Q 413.25 569.86 413.90 571.02
  L 420.84 583.55
  A 0.58 0.58 0.0 0 0 421.81 583.62
  L 435.55 565.42
  A 0.39 0.39 0.0 0 0 435.45 564.86
  C 435.23 564.71 434.80 564.68 434.54 564.54
  Z
  M 456.71 580.21
  L 451.42 573.51
  A 0.29 0.29 0.0 0 0 451.01 573.46
  L 450.43 573.92
  A 5.91 3.04 -38.3 0 0 447.67 579.97
  L 449.56 582.35
  A 5.91 3.04 -38.3 0 0 456.08 581.08
  L 456.66 580.62
  A 0.29 0.29 0.0 0 0 456.71 580.21
  Z
  M 401.80 587.15
  A 0.32 0.32 0.0 0 0 402.39 587.10
  Q 402.70 586.19 402.11 585.31
  Q 401.60 584.57 401.49 585.46
  Q 401.38 586.37 401.80 587.15
  Z
  M 500.99 603.01
  L 497.72 600.76
  A 0.86 0.85 46.4 0 0 496.81 600.73
  C 486.86 606.53 475.89 597.78 468.59 591.36
  A 0.52 0.52 0.0 0 0 467.83 591.44
  L 464.62 595.80
  A 1.08 1.06 46.7 0 0 464.59 597.01
  L 486.66 630.65
  A 0.36 0.36 0.0 0 0 487.27 630.64
  C 492.43 622.03 497.97 613.76 501.42 604.39
  Q 501.74 603.53 500.99 603.01
  Z
  M 396.16 613.80
  L 408.82 624.38
  Q 409.34 624.81 409.69 624.23
  Q 415.56 614.58 420.02 604.19
  Q 420.23 603.70 419.70 603.64
  Q 414.14 602.96 410.80 598.59
  Q 410.44 598.12 410.03 598.54
  Q 403.69 604.84 397.35 611.14
  C 396.96 611.53 396.73 612.37 396.22 612.72
  A 0.68 0.68 0.0 0 0 396.16 613.80
  Z
  M 482.25 650.75
  C 478.98 648.70 477.10 646.60 474.79 643.18
  Q 466.73 631.20 458.67 618.87
  A 0.34 0.34 0.0 0 0 458.04 619.08
  C 459.55 635.94 462.07 652.99 463.49 669.59
  A 1.01 1.00 -5.1 0 0 464.59 670.50
  L 485.63 668.49
  Q 487.90 668.27 487.19 666.11
  Q 484.99 659.37 483.50 652.52
  Q 483.25 651.37 482.25 650.75
  Z
  M 403.67 665.74
  Q 412.44 671.95 422.04 676.80
  A 0.48 0.48 0.0 0 0 422.73 676.36
  Q 422.70 673.80 423.07 671.01
  Q 425.80 650.73 426.13 630.40
  A 0.24 0.24 0.0 0 0 425.67 630.28
  Q 421.20 638.64 412.97 643.18
  A 1.41 1.41 0.0 0 0 412.37 643.84
  L 403.38 664.68
  A 0.88 0.87 -60.5 0 0 403.67 665.74
  Z"
/>
<path fill="#ebe8ef" d="
  M 238.31 0.00
  L 646.31 0.00
  L 640.00 0.64
  A 0.15 0.14 57.8 0 0 639.94 0.91
  Q 667.18 17.22 686.79 44.22
  Q 690.65 49.54 692.39 53.20
  Q 692.51 53.44 692.53 53.18
  L 693.00 48.56
  L 693.00 439.56
  L 692.43 435.73
  Q 692.32 434.94 691.83 435.57
  C 691.00 436.62 690.28 437.48 689.15 438.22
  C 664.94 454.03 640.51 465.16 611.52 466.93
  Q 611.15 466.95 611.35 466.64
  C 617.01 457.60 620.51 448.06 625.29 438.60
  Q 629.78 429.73 631.73 420.33
  Q 633.18 419.05 635.04 417.29
  C 641.10 411.55 670.15 381.40 652.33 375.65
  C 647.67 374.14 644.21 377.98 642.06 381.51
  C 635.46 392.32 628.16 400.04 619.39 409.32
  Q 603.17 422.66 582.94 429.00
  Q 582.41 429.16 582.58 428.63
  Q 586.07 417.72 589.37 406.70
  C 597.02 381.09 598.78 357.42 599.15 330.45
  Q 599.16 329.93 599.78 324.07
  C 600.20 320.13 598.76 315.79 598.63 312.31
  C 597.49 283.39 595.95 250.13 588.78 220.73
  A 1.17 1.15 -34.4 0 1 588.97 219.77
  Q 591.47 216.41 595.70 213.96
  C 602.41 210.06 598.97 200.81 596.06 195.62
  Q 595.83 195.21 596.14 194.87
  Q 599.99 190.64 604.77 183.31
  C 608.76 177.18 602.96 172.75 597.99 168.84
  C 588.91 161.71 581.70 172.63 576.84 178.60
  A 0.76 0.76 0.0 0 1 576.02 178.84
  C 569.16 176.60 564.09 175.43 558.70 181.31
  Q 558.36 181.68 558.32 182.19
  Q 557.58 192.85 553.36 202.64
  Q 553.18 203.07 552.76 203.26
  Q 549.37 204.78 548.94 208.46
  A 1.60 1.52 70.1 0 1 548.58 209.28
  C 543.26 215.63 536.01 228.39 526.86 230.25
  C 520.20 231.60 511.48 235.53 508.26 241.57
  C 506.28 245.29 503.29 247.24 501.50 251.29
  Q 501.29 251.77 500.92 251.41
  C 488.53 239.60 478.31 226.97 469.00 212.66
  Q 465.04 206.56 460.91 200.92
  Q 460.62 199.15 460.43 194.31
  Q 460.00 183.79 456.01 159.78
  C 455.45 156.43 455.45 153.09 453.46 150.06
  C 447.44 140.90 437.13 148.85 438.46 157.76
  Q 442.53 184.82 444.02 204.47
  Q 443.48 206.46 443.51 208.50
  Q 443.86 232.93 441.99 262.00
  C 440.95 278.34 430.67 297.65 421.03 312.31
  Q 415.93 288.65 415.77 264.01
  C 415.69 250.86 399.06 250.30 398.76 263.08
  Q 398.07 292.71 406.43 325.32
  Q 406.54 325.77 407.19 326.47
  Q 406.92 328.18 407.05 328.74
  Q 413.02 354.29 423.32 378.44
  Q 423.48 378.82 423.07 378.77
  C 388.97 374.63 364.01 355.69 347.74 326.06
  C 345.86 318.40 336.88 312.67 331.01 320.57
  C 328.00 324.63 330.13 328.20 331.21 332.11
  C 332.25 335.90 330.94 339.18 332.70 343.34
  L 337.31 366.31
  Q 337.45 366.98 336.88 366.60
  C 327.08 360.01 320.90 352.59 312.38 342.17
  Q 292.30 317.58 282.10 287.21
  C 281.91 286.65 281.44 286.31 281.01 285.93
  Q 281.37 284.45 281.25 284.00
  C 273.08 252.48 269.98 220.08 269.04 187.25
  Q 268.85 180.86 269.59 171.01
  Q 282.64 168.74 295.86 166.73
  C 318.47 163.30 340.72 157.82 362.58 151.11
  Q 367.91 149.47 373.05 147.27
  Q 410.18 131.36 443.88 109.27
  C 458.18 99.90 469.07 88.57 478.78 74.97
  C 481.01 71.84 484.68 68.88 486.69 64.90
  Q 487.07 64.13 486.22 64.23
  Q 485.87 64.27 485.37 64.65
  C 480.24 68.56 475.23 72.70 469.31 75.25
  C 454.28 81.75 440.14 85.47 422.93 89.16
  Q 414.01 91.07 405.42 91.77
  C 384.71 93.45 364.99 93.40 342.18 93.04
  C 332.08 92.89 320.40 92.26 311.75 91.48
  Q 310.52 91.37 307.43 89.93
  Q 330.79 64.42 354.48 39.22
  Q 355.59 38.04 356.84 35.46
  C 359.79 29.37 354.11 21.41 347.39 24.26
  Q 343.99 25.70 341.69 28.19
  C 319.81 51.75 303.17 68.53 285.53 89.75
  C 268.05 86.58 251.00 81.94 234.11 76.78
  C 219.55 72.34 209.73 66.92 192.24 58.52
  Q 183.44 54.29 175.79 48.23
  C 174.36 47.10 173.04 46.62 171.39 45.90
  C 190.81 26.19 212.87 13.01 238.26 2.51
  Q 240.48 1.59 243.50 1.02
  Q 244.54 0.82 243.49 0.68
  L 238.31 0.00
  Z"
/>
<path fill="#504e5b" d="
  M 646.31 0.00
  L 666.79 0.00
  Q 669.15 0.27 670.40 1.36
  Q 682.60 11.97 693.00 24.93
  L 693.00 48.56
  L 692.53 53.18
  Q 692.51 53.44 692.39 53.20
  Q 690.65 49.54 686.79 44.22
  Q 667.18 17.22 639.94 0.91
  A 0.15 0.14 57.8 0 1 640.00 0.64
  L 646.31 0.00
  Z"
/>
<path fill="#e2eaf5" d="
  M 666.79 0.00
  L 693.00 0.00
  L 693.00 24.93
  Q 682.60 11.97 670.40 1.36
  Q 669.15 0.27 666.79 0.00
  Z"
/>
<path fill="#bfbcc7" d="
  M 307.43 89.93
  Q 305.30 92.84 302.94 95.66
  Q 293.28 107.18 284.08 119.08
  C 272.84 133.63 270.22 153.84 269.59 171.01
  Q 268.85 180.86 269.04 187.25
  C 269.98 220.08 273.08 252.48 281.25 284.00
  Q 281.37 284.45 281.01 285.93
  Q 272.54 282.94 264.65 287.46
  C 254.66 250.88 251.54 210.81 252.18 173.10
  C 253.00 154.41 255.23 134.90 264.64 118.02
  C 269.64 109.05 278.33 98.90 285.53 89.75
  C 303.17 68.53 319.81 51.75 341.69 28.19
  Q 343.99 25.70 347.39 24.26
  C 354.11 21.41 359.79 29.37 356.84 35.46
  Q 355.59 38.04 354.48 39.22
  Q 330.79 64.42 307.43 89.93
  Z"
/>
<path fill="#6e6c79" d="
  M 127.02 62.51
  Q 109.74 56.14 91.85 52.59
  Q 92.82 49.51 95.76 46.28
  C 97.70 44.14 99.90 44.05 102.47 44.78
  Q 117.02 48.89 126.69 60.94
  Q 126.98 61.30 127.00 61.77
  L 127.02 62.51
  Z"
/>
<path fill="#ebe8ef" d="
  M 41.23 132.49
  C 28.44 135.91 35.74 149.51 42.54 153.57
  L 49.73 155.45
  Q 50.22 155.58 49.95 156.00
  C 32.34 183.62 20.04 216.18 8.98 246.91
  Q 7.38 251.35 7.69 254.36
  C 8.99 267.29 33.98 276.06 45.43 278.11
  Q 45.95 278.20 45.96 278.72
  Q 46.69 306.30 48.89 333.80
  Q 49.97 347.28 49.79 353.75
  C 49.10 378.55 43.82 404.55 33.04 426.59
  C 31.16 430.42 29.64 437.55 35.85 438.48
  C 47.76 440.28 61.69 435.42 71.76 429.78
  Q 72.20 429.53 72.25 430.04
  C 74.19 450.38 81.20 466.21 91.86 483.28
  Q 92.13 483.71 92.13 484.21
  Q 92.16 487.70 92.67 491.10
  C 94.48 503.35 94.30 516.18 94.19 530.75
  C 94.13 538.68 91.54 544.01 89.25 550.99
  Q 89.13 551.39 88.99 550.99
  Q 80.51 526.10 62.57 506.93
  Q 55.21 499.07 39.80 484.94
  Q 30.02 475.98 23.42 462.72
  C 22.29 460.43 20.44 458.47 18.75 456.69
  Q 17.27 446.47 13.87 436.86
  C 11.97 431.49 8.86 428.33 2.98 429.96
  Q 2.46 430.11 2.44 430.65
  Q 2.36 432.49 0.82 432.33
  Q 0.35 432.28 0.27 432.76
  L 0.00 434.44
  L 0.00 78.19
  L 0.43 71.33
  C 8.18 56.67 25.24 44.03 42.76 45.11
  Q 57.93 46.04 71.81 52.68
  Q 72.21 52.87 72.05 53.28
  L 67.51 65.25
  Q 67.37 65.63 66.97 65.72
  C 55.18 68.27 42.62 71.25 43.48 86.50
  Q 44.24 99.82 50.00 115.50
  C 51.06 118.37 53.06 122.17 54.27 125.65
  Q 54.44 126.12 53.99 126.33
  L 41.23 132.49
  Z"
/>
<path fill="#ffffff" d="
  M 171.39 45.90
  C 173.04 46.62 174.36 47.10 175.79 48.23
  Q 183.44 54.29 192.24 58.52
  C 209.73 66.92 219.55 72.34 234.11 76.78
  C 251.00 81.94 268.05 86.58 285.53 89.75
  C 278.33 98.90 269.64 109.05 264.64 118.02
  C 255.23 134.90 253.00 154.41 252.18 173.10
  Q 236.53 176.13 220.57 176.85
  C 201.36 177.72 181.03 178.95 163.55 177.94
  Q 132.13 176.13 102.79 159.46
  Q 100.72 158.28 100.97 156.56
  Q 101.20 156.06 101.71 155.81
  C 110.14 151.93 113.86 140.15 101.96 137.16
  Q 93.95 138.12 85.23 139.90
  Q 74.18 142.15 62.94 141.24
  Q 62.34 141.19 62.85 140.86
  C 78.99 130.63 94.40 120.24 108.54 107.29
  Q 123.14 93.90 171.39 45.90
  Z"
/>
<path fill="#ffffff" d="
  M 91.85 52.59
  Q 109.74 56.14 127.02 62.51
  Q 128.04 62.93 128.77 63.76
  Q 129.07 64.11 128.75 64.44
  Q 126.68 66.56 125.01 66.24
  C 116.38 64.55 107.69 63.48 98.99 61.98
  Q 93.45 61.03 87.76 61.64
  Q 87.24 61.70 87.40 61.20
  Q 88.69 57.11 91.85 52.59
  Z"
/>
<path fill="#ffffff" d="
  M 269.59 171.01
  C 270.22 153.84 272.84 133.63 284.08 119.08
  Q 293.28 107.18 302.94 95.66
  Q 305.30 92.84 307.43 89.93
  Q 310.52 91.37 311.75 91.48
  C 320.40 92.26 332.08 92.89 342.18 93.04
  C 364.99 93.40 384.71 93.45 405.42 91.77
  Q 414.01 91.07 422.93 89.16
  C 440.14 85.47 454.28 81.75 469.31 75.25
  C 475.23 72.70 480.24 68.56 485.37 64.65
  Q 485.87 64.27 486.22 64.23
  Q 487.07 64.13 486.69 64.90
  C 484.68 68.88 481.01 71.84 478.78 74.97
  C 469.07 88.57 458.18 99.90 443.88 109.27
  Q 410.18 131.36 373.05 147.27
  Q 367.91 149.47 362.58 151.11
  C 340.72 157.82 318.47 163.30 295.86 166.73
  Q 282.64 168.74 269.59 171.01
  Z"
/>
<path fill="#ffffff" d="
  M 0.00 69.43
  Q 0.48 70.55 0.43 71.33
  L 0.00 78.19
  L 0.00 69.43
  Z"
/>
<path fill="#6e6c79" d="
  M 64.91 106.81
  Q 77.00 100.66 90.12 99.63
  Q 90.61 99.59 91.00 99.27
  C 94.28 96.55 97.51 92.54 101.48 91.12
  A 0.30 0.30 0.0 0 0 101.36 90.53
  C 92.37 91.17 83.05 91.60 74.62 94.25
  Q 68.52 96.17 62.67 98.69
  L 60.34 85.89
  A 1.07 1.07 0.0 0 1 61.11 84.67
  Q 84.91 77.83 109.51 80.62
  A 0.74 0.74 0.0 0 1 110.00 81.82
  C 107.91 84.40 105.63 86.06 103.91 89.20
  C 102.11 92.46 98.36 94.57 96.37 96.32
  C 95.66 96.95 91.07 100.17 90.99 100.51
  A 1.27 1.25 -11.4 0 1 90.51 101.22
  L 69.64 116.48
  Q 69.14 116.84 68.90 116.27
  L 64.91 106.81
  Z"
/>
<path fill="#ffffff" d="
  M 64.91 106.81
  L 62.67 98.69
  Q 68.52 96.17 74.62 94.25
  C 83.05 91.60 92.37 91.17 101.36 90.53
  A 0.30 0.30 0.0 0 1 101.48 91.12
  C 97.51 92.54 94.28 96.55 91.00 99.27
  Q 90.61 99.59 90.12 99.63
  Q 77.00 100.66 64.91 106.81
  Z"
/>
<path fill="#6e6c79" d="
  M 41.23 132.49
  Q 40.81 134.03 39.70 135.07
  Q 39.34 135.40 39.23 135.88
  C 38.17 140.68 36.27 146.55 41.57 149.91
  Q 43.39 151.07 42.54 153.57
  C 35.74 149.51 28.44 135.91 41.23 132.49
  Z"
/>
<path fill="#6e6c79" d="
  M 101.96 137.16
  C 113.86 140.15 110.14 151.93 101.71 155.81
  C 109.43 148.26 108.62 145.29 101.96 137.16
  Z"
/>
<path fill="#bfbcc7" d="
  M 460.91 200.92
  Q 451.50 201.50 444.02 204.47
  Q 442.53 184.82 438.46 157.76
  C 437.13 148.85 447.44 140.90 453.46 150.06
  C 455.45 153.09 455.45 156.43 456.01 159.78
  Q 460.00 183.79 460.43 194.31
  Q 460.62 199.15 460.91 200.92
  Z"
/>
<path fill="#ebe8ef" d="
  M 100.97 156.56
  Q 100.72 158.28 102.79 159.46
  Q 132.13 176.13 163.55 177.94
  C 181.03 178.95 201.36 177.72 220.57 176.85
  Q 236.53 176.13 252.18 173.10
  C 251.54 210.81 254.66 250.88 264.65 287.46
  C 257.96 303.78 251.80 321.15 242.52 336.10
  Q 225.44 363.64 201.02 400.26
  Q 196.61 406.89 191.15 411.98
  Q 186.96 379.18 189.39 347.07
  C 191.45 319.89 195.19 292.01 203.00 265.84
  C 205.78 256.54 209.95 246.72 213.74 237.24
  C 216.80 229.60 218.66 223.06 209.64 219.45
  A 1.62 1.62 0.0 0 0 208.62 219.39
  C 201.90 221.12 200.99 225.09 197.69 232.27
  Q 184.98 259.96 179.47 289.99
  Q 173.17 324.31 171.76 353.50
  Q 170.15 386.73 175.18 424.57
  Q 174.94 425.72 175.17 428.31
  Q 177.41 453.86 179.30 479.44
  Q 180.14 490.78 184.68 501.19
  Q 184.95 501.81 184.29 501.67
  Q 177.86 500.36 172.88 496.46
  Q 165.43 489.70 161.95 485.80
  C 153.33 476.12 149.08 463.23 145.08 450.84
  C 143.32 445.37 138.03 440.52 132.26 444.90
  C 128.10 448.05 127.92 452.16 129.34 457.17
  C 135.91 480.47 146.66 500.81 169.31 511.86
  L 165.66 534.06
  Q 165.57 534.61 165.11 534.30
  Q 161.19 531.62 159.05 529.70
  C 125.76 499.92 88.53 467.86 88.90 418.78
  L 88.59 410.15
  C 88.24 406.64 87.24 403.00 84.08 401.06
  C 74.55 395.19 73.06 406.93 68.61 410.89
  Q 62.89 416.00 55.98 418.47
  Q 55.21 418.75 55.47 417.97
  C 64.72 390.54 68.43 363.13 66.17 334.54
  Q 63.96 306.67 63.04 278.77
  L 63.61 237.82
  Q 64.07 236.00 64.28 233.90
  C 66.71 209.67 77.37 184.59 91.25 165.26
  Q 94.78 160.35 100.97 156.56
  Z"
/>
<path fill="#6e6c79" d="
  M 50.21 219.15
  Q 49.06 219.50 48.78 221.25
  C 42.69 233.63 36.54 245.25 34.71 257.17
  L 25.60 252.28
  A 0.81 0.80 -65.9 0 1 25.23 251.29
  C 35.50 223.70 46.32 194.81 61.13 169.91
  Q 63.92 165.20 68.46 160.45
  C 69.98 158.86 71.75 158.82 73.76 158.78
  A 0.40 0.39 14.6 0 1 74.11 159.37
  Q 68.28 169.43 62.98 179.70
  Q 53.24 198.55 50.21 219.15
  Z"
/>
<path fill="#6e6c79" d="
  M 584.25 182.91
  A 0.22 0.22 0.0 0 1 584.19 182.61
  L 584.57 182.04
  A 10.28 4.45 -56.3 0 1 593.97 175.96
  L 593.97 175.96
  A 10.28 4.45 -56.3 0 1 591.97 186.98
  L 591.59 187.55
  A 0.22 0.22 0.0 0 1 591.29 187.61
  L 584.25 182.91
  Z"
/>
<path fill="#6e6c79" d="
  M 567.58 186.53
  Q 567.92 185.49 568.99 185.73
  Q 585.93 189.51 591.51 206.01
  Q 591.67 206.48 591.27 206.78
  Q 585.14 211.49 580.10 217.37
  A 0.62 0.62 0.0 0 1 579.13 217.34
  Q 572.41 208.44 562.66 203.08
  Q 562.20 202.82 562.37 202.32
  L 567.58 186.53
  Z"
/>
<path fill="#6e6c79" d="
  M 556.06 207.29
  A 0.26 0.26 0.0 0 1 556.42 207.25
  L 556.53 207.34
  A 20.84 1.02 39.6 0 1 571.94 221.41
  L 571.93 221.43
  A 20.84 1.02 39.6 0 1 555.22 208.93
  L 555.11 208.84
  A 0.26 0.26 0.0 0 1 555.08 208.47
  L 556.06 207.29
  Z"
/>
<path fill="#6e6c79" d="
  M 553.89 217.02
  Q 554.70 216.10 555.64 216.89
  L 565.36 225.12
  Q 565.74 225.45 565.41 225.83
  C 560.56 231.29 551.68 239.97 549.80 246.98
  A 0.74 0.74 0.0 0 1 548.80 247.47
  Q 540.56 244.04 534.34 237.58
  A 0.75 0.75 0.0 0 1 534.47 236.43
  C 542.26 231.25 547.51 224.22 553.89 217.02
  Z"
/>
<path fill="#bfbcc7" d="
  M 50.21 219.15
  L 49.32 221.51
  Q 49.17 221.17 48.78 221.25
  Q 49.06 219.50 50.21 219.15
  Z"
/>
<path fill="#bfbcc7" d="
  M 191.15 411.98
  L 175.18 424.57
  Q 170.15 386.73 171.76 353.50
  Q 173.17 324.31 179.47 289.99
  Q 184.98 259.96 197.69 232.27
  C 200.99 225.09 201.90 221.12 208.62 219.39
  A 1.62 1.62 0.0 0 1 209.64 219.45
  C 218.66 223.06 216.80 229.60 213.74 237.24
  C 209.95 246.72 205.78 256.54 203.00 265.84
  C 195.19 292.01 191.45 319.89 189.39 347.07
  Q 186.96 379.18 191.15 411.98
  Z"
/>
<path fill="#ffffff" d="
  M 48.78 221.25
  Q 49.17 221.17 49.32 221.51
  L 48.55 224.86
  C 46.26 229.95 46.42 235.17 45.57 240.06
  Q 44.75 244.73 44.78 249.50
  L 42.03 259.99
  L 34.71 257.17
  C 36.54 245.25 42.69 233.63 48.78 221.25
  Z"
/>
<path fill="#bfbcc7" d="
  M 48.55 224.86
  Q 48.80 228.00 48.23 231.02
  C 47.20 236.46 47.08 241.16 46.12 246.23
  L 44.78 249.50
  Q 44.75 244.73 45.57 240.06
  C 46.42 235.17 46.26 229.95 48.55 224.86
  Z"
/>
<path fill="#ebe8ef" d="
  M 544.68 286.84
  Q 544.24 286.61 544.69 286.42
  C 549.07 284.54 556.65 277.39 554.03 271.82
  A 0.95 0.93 -41.2 0 1 554.10 270.89
  C 557.56 265.63 559.53 259.22 557.82 253.00
  C 555.99 246.36 566.67 236.77 572.67 230.46
  Q 573.15 229.96 573.30 230.63
  C 579.11 255.45 580.13 282.32 581.31 307.64
  Q 581.34 308.20 580.83 307.95
  Q 563.96 299.52 548.33 288.96
  Q 546.82 287.93 544.68 286.84
  Z"
/>
<path fill="#fff1e6" d="
  M 562.81 437.38
  Q 560.11 438.47 555.96 436.91
  C 560.11 421.87 561.39 407.36 558.06 392.25
  C 556.59 384.52 555.70 376.42 553.24 369.43
  C 549.51 358.80 543.98 347.23 538.55 337.57
  A 0.29 0.29 0.0 0 1 538.95 337.18
  C 542.85 339.49 547.86 342.99 552.28 342.77
  C 559.70 342.42 563.46 333.04 559.89 327.07
  Q 558.28 324.37 553.46 321.12
  C 540.47 312.34 526.36 310.17 510.69 308.31
  C 494.58 306.39 481.57 307.12 466.25 310.75
  C 450.63 314.46 437.36 324.03 427.12 336.14
  Q 426.66 336.68 426.49 336.00
  L 425.16 330.65
  Q 425.05 330.18 425.51 330.05
  Q 429.53 328.87 432.55 324.56
  C 444.83 307.00 457.58 285.07 459.09 263.83
  Q 460.25 247.61 460.58 231.39
  A 0.15 0.14 27.5 0 1 460.84 231.31
  C 475.26 250.85 491.94 266.90 510.66 282.17
  Q 543.20 308.73 581.08 327.18
  A 0.84 0.84 0.0 0 1 581.55 327.90
  Q 583.01 362.16 574.88 395.20
  C 572.21 406.03 567.85 418.45 564.05 429.92
  C 563.29 432.20 563.22 434.85 562.81 437.38
  Z"
/>
<path fill="#bfbcc7" d="
  M 63.61 237.82
  L 63.04 278.77
  Q 61.70 269.25 61.73 260.75
  Q 61.78 249.79 63.61 237.82
  Z"
/>
<path fill="#6e6c79" d="
  M 546.60 266.72
  C 534.69 263.92 523.90 255.70 515.35 246.42
  A 1.10 1.09 -43.1 0 1 515.41 244.88
  Q 519.74 240.78 525.54 239.17
  Q 526.08 239.02 526.33 239.51
  C 530.72 247.84 540.31 253.37 549.00 256.12
  A 1.45 1.45 0.0 0 1 550.01 257.53
  Q 549.93 262.34 547.41 266.38
  Q 547.12 266.84 546.60 266.72
  Z"
/>
<path fill="#6e6c79" d="
  M 46.12 246.23
  Q 46.57 250.19 45.30 253.84
  Q 45.13 254.32 45.31 254.80
  Q 46.06 256.89 45.11 259.08
  Q 44.87 259.63 45.46 259.77
  Q 46.22 259.95 46.27 260.63
  Q 46.32 261.33 45.65 261.12
  L 42.03 259.99
  L 44.78 249.50
  L 46.12 246.23
  Z"
/>
<path fill="#6e6c79" d="
  M 514.69 263.31
  C 511.01 259.96 506.00 256.57 508.43 251.64
  Q 508.68 251.12 509.06 251.56
  C 517.59 261.43 530.66 272.02 543.80 274.36
  A 1.14 1.13 27.9 0 1 544.40 276.29
  Q 541.54 279.08 537.55 277.61
  Q 537.06 277.43 536.73 277.02
  Q 535.94 276.05 533.96 275.31
  Q 523.64 271.47 514.69 263.31
  Z"
/>
<path fill="#bfbcc7" d="
  M 421.03 312.31
  Q 415.31 319.50 407.19 326.47
  Q 406.54 325.77 406.43 325.32
  Q 398.07 292.71 398.76 263.08
  C 399.06 250.30 415.69 250.86 415.77 264.01
  Q 415.93 288.65 421.03 312.31
  Z"
/>
<path fill="#fff1e6" d="
  M 299.31 353.09
  C 286.87 346.05 270.56 342.98 257.06 345.63
  Q 256.54 345.73 256.82 345.28
  Q 266.62 329.46 272.77 311.91
  A 0.31 0.31 0.0 0 1 273.35 311.88
  Q 283.75 334.03 299.48 352.89
  A 0.13 0.13 0.0 0 1 299.31 353.09
  Z"
/>
<path fill="#6e6c79" d="
  M 347.74 326.06
  L 341.49 320.20
  Q 341.11 319.85 340.59 319.89
  C 336.62 320.20 330.46 323.19 332.20 328.29
  Q 334.75 335.81 332.70 343.34
  C 330.94 339.18 332.25 335.90 331.21 332.11
  C 330.13 328.20 328.00 324.63 331.01 320.57
  C 336.88 312.67 345.86 318.40 347.74 326.06
  Z"
/>
<ellipse fill="#ffffff" cx="0.00" cy="0.00" transform="translate(500.52,343.31) rotate(90.1)" rx="9.31" ry="8.30"/>
<path fill="#fff1e6" d="
  M 445.94 345.69
  Q 445.94 345.36 446.28 345.22
  A 0.31 0.30 -5.0 0 1 446.69 345.56
  C 444.68 355.89 444.45 366.97 444.16 376.77
  Q 444.06 380.07 442.35 377.25
  Q 438.58 371.03 435.89 364.22
  A 3.13 3.12 -42.4 0 1 436.01 361.67
  C 438.95 355.87 440.73 350.87 445.94 345.69
  Z"
/>
<path fill="#fff1e6" d="
  M 447.61 413.42
  Q 452.74 434.77 465.38 452.29
  C 469.31 457.75 470.46 459.72 476.75 460.95
  Q 490.24 463.57 499.29 463.11
  Q 498.56 464.12 498.30 464.76
  Q 491.21 482.04 495.74 500.25
  L 485.70 503.80
  C 461.25 511.99 442.66 516.07 415.41 521.09
  C 413.68 521.44 411.60 521.44 409.88 521.76
  Q 382.23 526.89 354.33 528.27
  C 353.54 507.06 338.74 492.32 319.91 484.93
  C 324.85 481.03 330.89 476.72 331.86 471.58
  C 334.14 459.49 334.39 447.86 331.71 432.53
  C 329.10 413.93 322.84 400.34 314.81 379.42
  L 317.42 376.88
  Q 317.80 376.51 317.92 375.99
  L 318.36 374.13
  Q 329.97 383.49 343.78 388.45
  C 354.00 392.12 359.53 386.95 357.05 376.61
  Q 355.55 370.39 354.26 364.10
  Q 354.15 363.56 354.65 363.79
  Q 355.09 363.99 355.26 364.45
  Q 355.44 364.91 355.80 365.25
  Q 385.34 392.79 425.84 396.26
  C 431.94 396.78 438.28 397.94 444.38 397.01
  Q 444.91 396.93 444.94 397.46
  Q 445.40 405.69 447.61 413.42
  Z
  M 389.28 497.40
  C 381.95 497.40 382.88 506.37 390.75 506.48
  C 402.28 506.64 410.88 503.49 422.00 497.51
  C 426.71 494.98 427.54 489.40 421.94 487.41
  Q 421.41 487.22 420.91 487.49
  C 409.24 493.89 401.58 497.39 389.28 497.40
  Z"
/>
<ellipse fill="#ffffff" cx="0.00" cy="0.00" transform="translate(277.22,380.40) rotate(59.5)" rx="9.95" ry="9.17"/>
<path fill="#6e6c79" d="
  M 318.36 374.13
  L 317.92 375.99
  Q 317.80 376.51 317.42 376.88
  L 314.81 379.42
  C 313.19 377.23 316.81 372.43 318.36 374.13
  Z"
/>
<path fill="#bfbcc7" d="
  M 631.73 420.33
  Q 630.55 418.74 629.69 417.47
  C 627.42 414.09 622.94 411.44 619.39 409.32
  C 628.16 400.04 635.46 392.32 642.06 381.51
  C 644.21 377.98 647.67 374.14 652.33 375.65
  C 670.15 381.40 641.10 411.55 635.04 417.29
  Q 633.18 419.05 631.73 420.33
  Z"
/>
<path fill="#9bbdd1" d="
  M 558.06 392.25
  C 561.39 407.36 560.11 421.87 555.96 436.91
  C 548.58 451.28 521.33 461.23 505.76 462.52
  Q 502.49 462.79 499.29 463.11
  Q 490.24 463.57 476.75 460.95
  C 470.46 459.72 469.31 457.75 465.38 452.29
  Q 452.74 434.77 447.61 413.42
  C 458.73 405.61 472.26 396.85 485.53 393.35
  Q 507.94 387.43 532.50 387.55
  Q 546.32 387.61 558.06 392.25
  Z"
/>
<path fill="#fff1e6" d="
  M 237.45 453.93
  Q 244.78 473.94 258.44 489.87
  Q 247.90 499.21 240.56 513.08
  Q 221.17 470.95 194.74 435.49
  A 1.79 1.78 48.6 0 1 194.88 433.18
  C 201.47 426.37 208.01 419.58 213.50 411.86
  Q 221.63 400.44 229.01 388.51
  Q 229.29 388.05 229.19 388.58
  C 228.57 391.76 227.93 394.90 228.00 398.18
  C 228.42 419.14 230.30 435.48 237.45 453.93
  Z"
/>
<path fill="#bfbcc7" d="
  M 88.59 410.15
  L 88.90 418.78
  Q 87.78 414.39 88.59 410.15
  Z"
/>
<path fill="#9bbdd1" d="
  M 331.71 432.53
  C 334.39 447.86 334.14 459.49 331.86 471.58
  C 330.89 476.72 324.85 481.03 319.91 484.93
  Q 308.16 492.43 294.53 494.34
  C 283.82 495.84 268.51 493.94 258.44 489.87
  Q 244.78 473.94 237.45 453.93
  Q 241.90 450.42 244.28 449.00
  C 264.31 437.08 283.38 428.55 305.57 426.89
  Q 320.02 425.80 331.71 432.53
  Z"
/>
<path fill="#bfbcc7" d="
  M 18.75 456.69
  C 12.95 457.95 6.65 461.73 5.63 468.20
  Q 4.09 466.12 4.37 463.86
  Q 4.41 463.51 4.09 463.36
  L 3.43 463.05
  Q 3.00 462.85 3.16 462.41
  Q 3.50 461.42 2.89 461.04
  Q 2.45 460.75 2.42 460.23
  Q 2.26 457.39 1.28 454.76
  C 0.24 451.94 0.28 449.97 0.00 447.18
  L 0.00 434.44
  L 0.27 432.76
  Q 0.35 432.28 0.82 432.33
  Q 2.36 432.49 2.44 430.65
  Q 2.46 430.11 2.98 429.96
  C 8.86 428.33 11.97 431.49 13.87 436.86
  Q 17.27 446.47 18.75 456.69
  Z"
/>
<path fill="#ffc59e" d="
  M 555.96 436.91
  Q 560.11 438.47 562.81 437.38
  Q 560.79 446.82 572.08 448.42
  Q 575.26 448.87 581.05 447.54
  Q 588.07 452.46 593.91 458.38
  Q 568.41 472.64 549.94 480.96
  Q 525.26 492.07 495.74 500.25
  Q 491.21 482.04 498.30 464.76
  Q 498.56 464.12 499.29 463.11
  Q 502.49 462.79 505.76 462.52
  C 521.33 461.23 548.58 451.28 555.96 436.91
  Z"
/>
<path fill="#fff1e6" d="
  M 593.91 458.38
  Q 588.07 452.46 581.05 447.54
  Q 594.04 443.81 605.93 438.20
  Q 606.32 438.02 606.17 438.42
  C 603.11 446.87 600.48 453.79 593.91 458.38
  Z"
/>
<path fill="#bfbcc7" d="
  M 172.88 496.46
  L 169.31 511.86
  C 146.66 500.81 135.91 480.47 129.34 457.17
  C 127.92 452.16 128.10 448.05 132.26 444.90
  C 138.03 440.52 143.32 445.37 145.08 450.84
  C 149.08 463.23 153.33 476.12 161.95 485.80
  Q 165.43 489.70 172.88 496.46
  Z"
/>
<path fill="#ebe8ef" d="
  M 0.00 447.18
  C 0.28 449.97 0.24 451.94 1.28 454.76
  Q 2.26 457.39 2.42 460.23
  Q 2.45 460.75 2.89 461.04
  Q 3.50 461.42 3.16 462.41
  Q 3.00 462.85 3.43 463.05
  L 4.09 463.36
  Q 4.41 463.51 4.37 463.86
  Q 4.09 466.12 5.63 468.20
  C 6.62 471.76 8.10 475.34 8.92 478.68
  Q 13.53 497.62 16.14 517.06
  Q 16.24 517.79 15.78 517.21
  Q 6.18 505.29 0.59 491.02
  Q 0.37 490.44 0.28 491.05
  L 0.00 493.21
  L 0.00 447.18
  Z"
/>
<path fill="#e2eaf5" d="
  M 693.00 454.56
  L 693.00 693.00
  L 613.93 693.00
  L 617.97 692.68
  Q 618.62 692.63 618.44 692.00
  C 611.28 667.32 595.74 642.29 583.34 622.17
  C 562.56 588.47 534.82 555.57 502.42 532.53
  A 2.79 2.78 -72.4 0 1 501.25 530.26
  L 501.25 524.71
  Q 501.25 523.43 501.80 524.58
  L 501.93 524.85
  Q 502.05 525.10 502.28 525.25
  Q 510.94 530.69 520.25 534.90
  C 525.96 537.48 530.17 537.58 535.24 534.24
  Q 548.98 525.20 556.99 511.34
  A 0.40 0.40 0.0 0 1 557.64 511.29
  C 564.42 519.63 568.91 525.08 581.05 519.28
  C 599.07 510.67 610.80 500.95 624.93 486.93
  C 626.60 485.28 627.33 482.35 630.13 481.91
  C 651.69 478.45 671.72 468.75 690.55 457.45
  Q 691.00 457.18 691.51 457.15
  Q 692.98 457.08 693.00 454.56
  Z"
/>
<path fill="#ebe8ef" d="
  M 184.22 532.06
  A 0.57 0.57 0.0 0 1 183.95 531.48
  L 185.05 523.83
  A 0.67 0.66 15.1 0 1 185.96 523.31
  C 192.80 526.07 203.90 528.94 207.00 519.04
  A 1.63 1.62 44.7 0 0 206.99 518.06
  C 205.70 514.24 205.93 510.16 204.25 506.66
  C 198.22 494.13 197.10 482.63 195.51 469.04
  Q 195.47 468.67 195.66 468.99
  C 207.19 487.60 219.03 507.78 226.21 528.51
  A 1.33 1.30 -44.4 0 1 226.19 529.45
  Q 222.33 539.23 222.00 549.78
  Q 221.98 550.46 221.34 550.22
  Q 208.02 545.10 195.34 538.82
  C 191.51 536.93 187.97 534.38 184.22 532.06
  Z"
/>
<path fill="#ebe8ef" d="
  M 565.84 494.18
  A 0.09 0.09 0.0 0 1 565.87 494.04
  L 586.02 483.96
  A 0.83 0.83 0.0 0 1 586.99 484.14
  C 590.45 487.83 597.21 487.11 601.50 485.72
  A 0.20 0.20 0.0 0 1 601.69 486.07
  Q 588.97 496.46 574.23 503.69
  Q 573.47 504.06 573.00 503.36
  Q 569.98 498.84 565.84 494.18
  Z"
/>
<path fill="#ffc59e" d="
  M 319.91 484.93
  C 338.74 492.32 353.54 507.06 354.33 528.27
  Q 305.29 529.76 256.74 524.55
  Q 253.09 524.16 244.53 521.26
  A 1.17 1.15 -1.5 0 1 243.83 520.61
  L 240.56 513.08
  Q 247.90 499.21 258.44 489.87
  C 268.51 493.94 283.82 495.84 294.53 494.34
  Q 308.16 492.43 319.91 484.93
  Z"
/>
<path fill="#d17c6d" d="
  M 390.75 506.48
  C 382.88 506.37 381.95 497.40 389.28 497.40
  C 401.58 497.39 409.24 493.89 420.91 487.49
  Q 421.41 487.22 421.94 487.41
  C 427.54 489.40 426.71 494.98 422.00 497.51
  C 410.88 503.49 402.28 506.64 390.75 506.48
  Z"
/>
<path fill="#e2eaf5" d="
  M 335.94 693.00
  L 0.00 693.00
  L 0.00 524.20
  Q 3.44 528.96 7.56 533.19
  Q 16.82 542.71 25.55 552.68
  C 28.56 556.12 34.12 557.10 37.88 554.17
  C 41.80 551.12 42.05 546.96 40.76 542.11
  C 36.98 527.90 32.90 514.50 30.72 500.01
  Q 30.62 499.32 31.14 499.78
  C 47.45 514.22 61.51 528.74 70.26 549.21
  Q 73.96 557.86 74.15 564.82
  C 74.27 569.37 73.97 575.46 75.57 579.20
  C 77.94 584.71 84.28 586.64 89.48 583.47
  C 100.25 576.89 105.18 556.84 109.05 545.31
  C 112.60 534.73 111.50 522.13 111.06 507.83
  Q 111.04 507.31 111.41 507.68
  Q 133.69 530.53 154.24 548.02
  C 160.89 553.68 172.20 560.05 178.83 549.70
  A 0.49 0.48 -58.7 0 1 179.48 549.54
  Q 190.56 555.98 202.14 560.80
  C 210.68 564.35 228.92 574.35 235.34 563.57
  C 237.58 559.81 238.24 552.92 239.14 547.94
  Q 239.24 547.38 239.66 547.77
  C 249.51 557.09 259.01 566.14 270.42 573.60
  Q 275.23 576.75 280.67 574.69
  Q 301.48 566.81 319.04 553.74
  A 1.15 1.14 -41.1 0 1 320.53 553.84
  Q 330.14 563.35 342.47 569.06
  C 347.67 571.46 350.76 572.29 356.44 570.16
  Q 373.31 563.84 386.85 550.33
  Q 389.36 547.83 389.86 545.01
  Q 389.95 544.51 390.41 544.29
  C 394.12 542.51 401.66 542.16 405.92 541.56
  A 0.95 0.94 63.0 0 1 406.70 541.82
  Q 408.91 544.04 407.42 546.41
  Q 403.73 552.27 397.56 558.93
  C 394.99 561.71 394.19 564.74 392.17 567.70
  C 367.37 603.85 343.52 648.49 333.49 692.00
  Q 333.35 692.59 333.95 692.69
  L 335.94 693.00
  Z"
/>
<path fill="#d17c6d" d="
  M 485.70 503.80
  L 483.13 524.29
  Q 456.14 533.03 428.52 537.41
  Q 423.58 529.27 415.41 521.09
  C 442.66 516.07 461.25 511.99 485.70 503.80
  Z"
/>
<path fill="#ebe8ef" d="
  M 515.86 513.77
  A 0.12 0.12 0.0 0 1 515.85 513.55
  Q 516.58 513.16 517.47 512.92
  Q 529.84 509.66 541.50 504.46
  Q 541.66 504.39 541.56 504.53
  Q 535.66 512.89 527.54 519.10
  A 0.66 0.66 0.0 0 1 526.86 519.17
  L 515.86 513.77
  Z"
/>
<path fill="#ffc59e" d="
  M 483.13 524.29
  C 483.10 526.21 483.11 527.12 481.52 528.38
  C 472.26 535.75 462.58 546.18 450.45 553.13
  A 0.93 0.91 43.2 0 1 449.57 553.15
  C 444.64 550.66 439.82 548.49 435.78 544.75
  Q 432.15 541.39 428.52 537.41
  Q 456.14 533.03 483.13 524.29
  Z"
/>
<path fill="#ebe8ef" d="
  M 260.23 544.28
  Q 259.37 543.58 260.47 543.70
  C 273.51 545.18 286.94 546.61 300.16 546.14
  Q 300.68 546.12 300.23 546.38
  Q 289.11 552.69 277.35 557.74
  A 0.87 0.86 52.5 0 1 276.46 557.62
  L 260.23 544.28
  Z"
/>
<path fill="#ffffff" d="
  M 487.62 584.43
  C 479.33 578.98 471.49 572.36 465.57 564.29
  Q 465.28 563.90 465.68 563.63
  Q 475.65 556.70 484.22 547.96
  Q 485.56 546.60 487.23 545.76
  A 1.12 1.12 0.0 0 1 488.32 545.81
  L 497.20 551.22
  Q 498.02 551.73 497.92 552.69
  Q 496.09 569.37 488.32 584.24
  Q 488.07 584.72 487.62 584.43
  Z"
/>
<path fill="#ebe8ef" d="
  M 339.17 547.87
  Q 339.03 547.79 339.20 547.78
  L 365.56 546.38
  Q 365.78 546.37 365.60 546.49
  Q 359.14 550.80 351.97 553.48
  C 349.57 554.37 341.50 549.33 339.17 547.87
  Z"
/>
<path fill="#ffffff" d="
  M 434.54 564.54
  C 434.80 564.68 435.23 564.71 435.45 564.86
  A 0.39 0.39 0.0 0 1 435.55 565.42
  L 421.81 583.62
  A 0.58 0.58 0.0 0 1 420.84 583.55
  L 413.90 571.02
  Q 413.25 569.86 414.04 568.78
  L 422.83 556.75
  Q 423.15 556.31 423.55 556.67
  Q 428.60 561.26 434.54 564.54
  Z"
/>
<path fill="#ffffff" d="
  M 600.85 693.00
  L 430.44 693.00
  L 433.46 692.56
  Q 433.95 692.49 434.24 692.10
  Q 438.99 685.75 439.28 680.51
  Q 439.61 674.46 441.13 662.68
  Q 442.53 651.90 442.81 635.01
  Q 442.83 634.04 442.94 635.00
  Q 444.99 652.40 446.68 669.83
  C 447.61 679.51 449.15 687.59 459.84 688.41
  Q 461.90 688.56 469.05 687.26
  Q 475.29 686.13 482.99 685.97
  C 493.36 685.75 511.81 677.95 505.84 664.51
  Q 502.51 657.03 500.80 649.00
  Q 500.46 647.41 499.00 644.80
  Q 498.75 644.35 499.01 643.91
  C 504.73 634.32 521.06 611.29 518.92 599.69
  C 517.69 593.01 511.83 589.67 506.35 586.51
  Q 505.84 586.21 506.11 585.69
  Q 511.07 576.00 513.01 565.30
  Q 513.11 564.72 513.54 565.13
  Q 566.24 616.16 594.49 683.90
  Q 594.54 684.04 595.99 688.76
  Q 597.30 693.04 600.85 693.00
  Z"
/>
<path fill="#6e6c79" d="
  M 456.71 580.21
  A 0.29 0.29 0.0 0 1 456.66 580.62
  L 456.08 581.08
  A 5.91 3.04 -38.3 0 1 449.56 582.35
  L 447.67 579.97
  A 5.91 3.04 -38.3 0 1 450.43 573.92
  L 451.01 573.46
  A 0.29 0.29 0.0 0 1 451.42 573.51
  L 456.71 580.21
  Z"
/>
<path fill="#6e6c79" d="
  M 401.80 587.15
  Q 401.38 586.37 401.49 585.46
  Q 401.60 584.57 402.11 585.31
  Q 402.70 586.19 402.39 587.10
  A 0.32 0.32 0.0 0 1 401.80 587.15
  Z"
/>
<path fill="#6e6c79" d="
  M 500.99 603.01
  Q 501.74 603.53 501.42 604.39
  C 497.97 613.76 492.43 622.03 487.27 630.64
  A 0.36 0.36 0.0 0 1 486.66 630.65
  L 464.59 597.01
  A 1.08 1.06 46.7 0 1 464.62 595.80
  L 467.83 591.44
  A 0.52 0.52 0.0 0 1 468.59 591.36
  C 475.89 597.78 486.86 606.53 496.81 600.73
  A 0.86 0.85 46.4 0 1 497.72 600.76
  L 500.99 603.01
  Z"
/>
<path fill="#6e6c79" d="
  M 396.16 613.80
  A 0.68 0.68 0.0 0 1 396.22 612.72
  C 396.73 612.37 396.96 611.53 397.35 611.14
  Q 403.69 604.84 410.03 598.54
  Q 410.44 598.12 410.80 598.59
  Q 414.14 602.96 419.70 603.64
  Q 420.23 603.70 420.02 604.19
  Q 415.56 614.58 409.69 624.23
  Q 409.34 624.81 408.82 624.38
  L 396.16 613.80
  Z"
/>
<path fill="#6e6c79" d="
  M 482.25 650.75
  Q 483.25 651.37 483.50 652.52
  Q 484.99 659.37 487.19 666.11
  Q 487.90 668.27 485.63 668.49
  L 464.59 670.50
  A 1.01 1.00 -5.1 0 1 463.49 669.59
  C 462.07 652.99 459.55 635.94 458.04 619.08
  A 0.34 0.34 0.0 0 1 458.67 618.87
  Q 466.73 631.20 474.79 643.18
  C 477.10 646.60 478.98 648.70 482.25 650.75
  Z"
/>
<path fill="#ffffff" d="
  M 418.50 693.00
  L 350.43 693.00
  L 352.37 692.73
  Q 352.81 692.67 352.90 692.23
  C 357.60 668.56 369.81 643.52 380.28 623.00
  Q 380.48 622.60 380.83 622.89
  L 397.92 637.36
  Q 398.28 637.66 397.96 638.02
  C 392.97 643.47 389.47 654.17 387.18 660.27
  C 384.72 666.85 385.11 672.51 390.57 676.92
  Q 403.30 687.19 418.50 693.00
  Z"
/>
<path fill="#6e6c79" d="
  M 403.67 665.74
  A 0.88 0.87 -60.5 0 1 403.38 664.68
  L 412.37 643.84
  A 1.41 1.41 0.0 0 1 412.97 643.18
  Q 421.20 638.64 425.67 630.28
  A 0.24 0.24 0.0 0 1 426.13 630.40
  Q 425.80 650.73 423.07 671.01
  Q 422.70 673.80 422.73 676.36
  A 0.48 0.48 0.0 0 1 422.04 676.80
  Q 412.44 671.95 403.67 665.74
  Z"
/>
</svg>
